<?xml version="1.0" encoding="utf-8"?>
<!-- Generator: Adobe Illustrator 16.0.0, SVG Export Plug-In . SVG Version: 6.00 Build 0)  -->
<!DOCTYPE svg PUBLIC "-//W3C//DTD SVG 1.1//EN" "http://www.w3.org/Graphics/SVG/1.1/DTD/svg11.dtd">
<svg version="1.1" xmlns="http://www.w3.org/2000/svg" xmlns:xlink="http://www.w3.org/1999/xlink" x="0px" y="0px"
	 width="1133.86px" height="850.39px" viewBox="0 0 1133.86 850.39" enable-background="new 0 0 1133.86 850.39"
	 xml:space="preserve">
<g id="Layer_1">
	<g>
		
			<line fill="none" stroke="#D40000" stroke-width="0.25" stroke-miterlimit="10" x1="369.621" y1="477.698" x2="369.621" y2="490.994"/>
		
			<line fill="none" stroke="#D40000" stroke-width="0.25" stroke-miterlimit="10" x1="185.621" y1="477.698" x2="185.621" y2="490.994"/>
	</g>
	<g>
		
			<line fill="none" stroke="#D40000" stroke-width="0.25" stroke-miterlimit="10" x1="369.621" y1="30.364" x2="369.621" y2="43.66"/>
		
			<line fill="none" stroke="#D40000" stroke-width="0.25" stroke-miterlimit="10" x1="185.621" y1="30.364" x2="185.621" y2="43.66"/>
	</g>
	
		<line fill="none" stroke="#D40000" stroke-width="0.25" stroke-miterlimit="10" x1="185.51" y1="223.253" x2="185.51" y2="229.389"/>
	
		<line fill="none" stroke="#D40000" stroke-width="0.25" stroke-miterlimit="10" x1="126.677" y1="269.039" x2="126.677" y2="275.174"/>
	
		<line fill="none" stroke="#D40000" stroke-width="0.25" stroke-miterlimit="10" x1="244.343" y1="269.039" x2="244.343" y2="275.174"/>
	
		<line fill="none" stroke="#D40000" stroke-width="0.25" stroke-miterlimit="10" x1="369.654" y1="223.253" x2="369.654" y2="229.389"/>
	
		<line fill="none" stroke="#FF0000" stroke-width="0.25" stroke-miterlimit="10" x1="366.053" y1="226.374" x2="187.836" y2="226.374"/>
	
		<line fill="none" stroke="#FF0000" stroke-width="0.25" stroke-miterlimit="10" x1="242.825" y1="272.262" x2="128.195" y2="272.262"/>
	<text transform="matrix(1 0 0 1 171.8301 281.728)" fill="#FF0000" font-family="'MyriadPro-Regular'" font-size="8">41.5mm</text>
	<path fill="none" stroke="#231F20" stroke-width="0.01" stroke-miterlimit="10" d="M532.195,519.908
		c0,10.303-5.373,18.658-12,18.658H33.959c-6.627,0-12-8.355-12-18.658V28.393c0-10.303,5.373-18.655,12-18.655h486.235
		c6.627,0,12,8.352,12,18.655V519.908z"/>
	<text transform="matrix(1 0 0 1 263.9399 223.0161)" fill="#FF0000" font-family="'MyriadPro-Regular'" font-size="8">650mm</text>
	<circle fill="#FFFFFF" stroke="#000000" stroke-width="0.01" stroke-miterlimit="10" cx="441.725" cy="133.646" r="4.251"/>
	<path fill="#0000FF" d="M441.724,123.016c-5.869,0-10.629,4.76-10.629,10.631s4.76,10.629,10.629,10.629
		c5.873,0,10.631-4.758,10.631-10.629S447.597,123.016,441.724,123.016z M441.724,137.898c-2.348,0-4.25-1.904-4.25-4.252
		s1.902-4.252,4.25-4.252c2.35,0,4.252,1.904,4.252,4.252S444.074,137.898,441.724,137.898z"/>
	<circle fill="#FFFFFF" stroke="#000000" stroke-width="0.01" stroke-miterlimit="10" cx="441.726" cy="133.646" r="4.252"/>
	<circle fill="#FFFFFF" stroke="#000000" stroke-width="0.01" stroke-miterlimit="10" cx="370.676" cy="205.197" r="4.252"/>
	<path fill="#0000FF" d="M370.676,194.566c-5.871,0-10.629,4.76-10.629,10.631s4.758,10.629,10.629,10.629
		s10.631-4.758,10.631-10.629S376.547,194.566,370.676,194.566z M370.676,209.449c-2.348,0-4.252-1.904-4.252-4.252
		s1.904-4.252,4.252-4.252s4.252,1.904,4.252,4.252S373.024,209.449,370.676,209.449z"/>
	<circle fill="#FFFFFF" stroke="#000000" stroke-width="0.01" stroke-miterlimit="10" cx="370.677" cy="205.197" r="4.251"/>
	<circle fill="#FFFFFF" stroke="#000000" stroke-width="0.01" stroke-miterlimit="10" cx="370.676" cy="62.754" r="4.252"/>
	<path fill="#0000FF" d="M370.676,52.124c-5.871,0-10.629,4.76-10.629,10.631s4.758,10.629,10.629,10.629
		s10.631-4.758,10.631-10.629S376.547,52.124,370.676,52.124z M370.676,67.007c-2.348,0-4.252-1.904-4.252-4.252
		s1.904-4.252,4.252-4.252s4.252,1.904,4.252,4.252S373.024,67.007,370.676,67.007z"/>
	<circle fill="#FFFFFF" stroke="#000000" stroke-width="0.01" stroke-miterlimit="10" cx="370.677" cy="62.755" r="4.251"/>
	<circle fill="#FFFFFF" stroke="#000000" stroke-width="0.01" stroke-miterlimit="10" cx="114.38" cy="134.306" r="4.251"/>
	<path fill="#0000FF" d="M114.381,144.936c5.869,0,10.629-4.76,10.629-10.631s-4.76-10.629-10.629-10.629
		c-5.873,0-10.631,4.758-10.631,10.629S108.508,144.936,114.381,144.936z M114.381,130.053c2.348,0,4.25,1.904,4.25,4.252
		s-1.902,4.252-4.25,4.252c-2.35,0-4.252-1.904-4.252-4.252S112.031,130.053,114.381,130.053z"/>
	<circle fill="#FFFFFF" stroke="#000000" stroke-width="0.01" stroke-miterlimit="10" cx="114.379" cy="134.305" r="4.252"/>
	<circle fill="#FFFFFF" stroke="#000000" stroke-width="0.01" stroke-miterlimit="10" cx="185.429" cy="62.755" r="4.251"/>
	<path fill="#0000FF" d="M185.43,73.384c5.87,0,10.629-4.76,10.629-10.631S191.3,52.124,185.43,52.124
		c-5.872,0-10.631,4.758-10.631,10.629S179.558,73.384,185.43,73.384z M185.43,58.501c2.348,0,4.251,1.904,4.251,4.252
		s-1.903,4.252-4.251,4.252c-2.349,0-4.252-1.904-4.252-4.252S183.081,58.501,185.43,58.501z"/>
	<circle fill="#FFFFFF" stroke="#000000" stroke-width="0.01" stroke-miterlimit="10" cx="185.428" cy="62.753" r="4.251"/>
	<circle fill="#FFFFFF" stroke="#000000" stroke-width="0.01" stroke-miterlimit="10" cx="185.429" cy="205.197" r="4.251"/>
	<path fill="#0000FC" d="M185.43,215.826c5.87,0,10.629-4.76,10.629-10.631s-4.759-10.629-10.629-10.629
		c-5.872,0-10.631,4.758-10.631,10.629S179.558,215.826,185.43,215.826z M185.43,200.943c2.348,0,4.251,1.904,4.251,4.252
		s-1.903,4.252-4.251,4.252c-2.349,0-4.252-1.904-4.252-4.252S183.081,200.943,185.43,200.943z"/>
	<circle fill="#FFFFFF" stroke="#000000" stroke-width="0.01" stroke-miterlimit="10" cx="185.428" cy="205.195" r="4.251"/>
	<path fill="#00FF00" d="M185.514,74.541c-32.485,0-58.819,26.334-58.819,58.82c0,32.485,26.334,58.819,58.819,58.819
		s58.819-26.334,58.819-58.819C244.333,100.875,217.999,74.541,185.514,74.541z M185.514,187.928
		c-30.137,0-54.567-24.432-54.567-54.569c0-30.135,24.431-54.566,54.567-54.566c30.138,0,54.567,24.432,54.567,54.566
		C240.081,163.496,215.651,187.928,185.514,187.928z"/>
	<g>
		<circle fill="none" stroke="#D40000" stroke-width="0.25" stroke-miterlimit="10" cx="185.513" cy="133.359" r="5.5"/>
		<g>
			
				<line fill="none" stroke="#D40000" stroke-width="0.25" stroke-miterlimit="10" x1="185.513" y1="115.042" x2="185.513" y2="151.675"/>
			
				<line fill="none" stroke="#D40000" stroke-width="0.25" stroke-miterlimit="10" x1="203.832" y1="133.359" x2="167.197" y2="133.359"/>
		</g>
	</g>
	<path fill="#00FF00" d="M370.004,74.541c-32.484,0-58.818,26.334-58.818,58.82c0,32.485,26.334,58.819,58.818,58.819
		c32.485,0,58.819-26.334,58.819-58.819C428.824,100.875,402.49,74.541,370.004,74.541z M370.004,187.928
		c-30.137,0-54.566-24.432-54.566-54.569c0-30.135,24.43-54.566,54.566-54.566c30.138,0,54.567,24.432,54.567,54.566
		C424.572,163.496,400.142,187.928,370.004,187.928z"/>
	<g>
		<circle fill="none" stroke="#D40000" stroke-width="0.25" stroke-miterlimit="10" cx="370.004" cy="133.359" r="5.5"/>
		<g>
			
				<line fill="none" stroke="#D40000" stroke-width="0.25" stroke-miterlimit="10" x1="370.004" y1="115.042" x2="370.004" y2="151.675"/>
			
				<line fill="none" stroke="#D40000" stroke-width="0.25" stroke-miterlimit="10" x1="388.323" y1="133.359" x2="351.688" y2="133.359"/>
		</g>
	</g>
	<path fill="none" stroke="#000000" stroke-width="0.001" stroke-miterlimit="10" d="M369.963,49.229
		c-8.119,0-15.963,1.164-23.396,3.295c-15.404-21.373-40.49-35.305-68.849-35.305c-28.356,0-53.44,13.932-68.845,35.305
		c-7.436-2.131-15.279-3.295-23.399-3.295c-46.854,0-84.836,37.982-84.836,84.836c0,46.855,37.982,84.835,84.836,84.835
		c46.855,0,84.838-37.98,84.838-84.835c0-29.221-14.775-54.987-37.261-70.245c10.788-12.591,26.789-20.584,44.669-20.584
		c17.88,0,33.882,7.993,44.669,20.584c-22.484,15.259-37.262,41.025-37.262,70.245c0,46.855,37.984,84.835,84.836,84.835
		c46.856,0,84.839-37.98,84.839-84.835C454.802,87.211,416.82,49.229,369.963,49.229z"/>
	
		<line fill="none" stroke="#D40000" stroke-width="0.25" stroke-miterlimit="10" x1="277.588" y1="113.272" x2="277.588" y2="149.906"/>
	
		<line fill="none" stroke="#D40000" stroke-width="0.25" stroke-miterlimit="10" x1="97.304" y1="133.589" x2="62.27" y2="133.589"/>
	
		<line fill="none" stroke="#D40000" stroke-width="0.25" stroke-miterlimit="10" x1="491.304" y1="133.589" x2="456.27" y2="133.589"/>
	<circle fill="none" stroke="#000000" stroke-width="0.01" stroke-miterlimit="10" cx="185.645" cy="133.585" r="54.567"/>
	<circle fill="none" stroke="#000000" stroke-width="0.01" stroke-miterlimit="10" cx="370.145" cy="133.331" r="54.567"/>
	<circle fill="#FFFFFF" stroke="#000000" stroke-width="0.01" stroke-miterlimit="10" cx="441.725" cy="387.646" r="4.251"/>
	<path fill="#0000FF" d="M441.724,377.016c-5.869,0-10.629,4.76-10.629,10.631s4.76,10.629,10.629,10.629
		c5.873,0,10.631-4.758,10.631-10.629S447.597,377.016,441.724,377.016z M441.724,391.898c-2.348,0-4.25-1.904-4.25-4.252
		s1.902-4.252,4.25-4.252c2.35,0,4.252,1.904,4.252,4.252S444.074,391.898,441.724,391.898z"/>
	<circle fill="#FFFFFF" stroke="#000000" stroke-width="0.01" stroke-miterlimit="10" cx="441.726" cy="387.646" r="4.252"/>
	<circle fill="#FFFFFF" stroke="#000000" stroke-width="0.01" stroke-miterlimit="10" cx="370.676" cy="459.197" r="4.252"/>
	<path fill="#0000FF" d="M370.676,448.566c-5.871,0-10.629,4.76-10.629,10.631s4.758,10.629,10.629,10.629
		s10.631-4.758,10.631-10.629S376.547,448.566,370.676,448.566z M370.676,463.449c-2.348,0-4.252-1.904-4.252-4.252
		s1.904-4.252,4.252-4.252s4.252,1.904,4.252,4.252S373.024,463.449,370.676,463.449z"/>
	<circle fill="#FFFFFF" stroke="#000000" stroke-width="0.01" stroke-miterlimit="10" cx="370.677" cy="459.197" r="4.251"/>
	<circle fill="#FFFFFF" stroke="#000000" stroke-width="0.01" stroke-miterlimit="10" cx="370.676" cy="316.754" r="4.252"/>
	<path fill="#0000FF" d="M370.676,306.124c-5.871,0-10.629,4.76-10.629,10.631s4.758,10.629,10.629,10.629
		s10.631-4.758,10.631-10.629S376.547,306.124,370.676,306.124z M370.676,321.007c-2.348,0-4.252-1.904-4.252-4.252
		s1.904-4.252,4.252-4.252s4.252,1.904,4.252,4.252S373.024,321.007,370.676,321.007z"/>
	<circle fill="#FFFFFF" stroke="#000000" stroke-width="0.01" stroke-miterlimit="10" cx="370.677" cy="316.755" r="4.251"/>
	<circle fill="#FFFFFF" stroke="#000000" stroke-width="0.01" stroke-miterlimit="10" cx="114.38" cy="388.306" r="4.251"/>
	<path fill="#0000FF" d="M114.381,398.936c5.869,0,10.629-4.76,10.629-10.631s-4.76-10.629-10.629-10.629
		c-5.873,0-10.631,4.758-10.631,10.629S108.508,398.936,114.381,398.936z M114.381,384.053c2.348,0,4.25,1.904,4.25,4.252
		s-1.902,4.252-4.25,4.252c-2.35,0-4.252-1.904-4.252-4.252S112.031,384.053,114.381,384.053z"/>
	<circle fill="#FFFFFF" stroke="#000000" stroke-width="0.01" stroke-miterlimit="10" cx="114.379" cy="388.305" r="4.252"/>
	<circle fill="#FFFFFF" stroke="#000000" stroke-width="0.01" stroke-miterlimit="10" cx="185.429" cy="316.755" r="4.251"/>
	<path fill="#0000FF" d="M185.43,327.384c5.87,0,10.629-4.76,10.629-10.631s-4.759-10.629-10.629-10.629
		c-5.872,0-10.631,4.758-10.631,10.629S179.558,327.384,185.43,327.384z M185.43,312.501c2.348,0,4.251,1.904,4.251,4.252
		s-1.903,4.252-4.251,4.252c-2.349,0-4.252-1.904-4.252-4.252S183.081,312.501,185.43,312.501z"/>
	<circle fill="#FFFFFF" stroke="#000000" stroke-width="0.01" stroke-miterlimit="10" cx="185.428" cy="316.753" r="4.251"/>
	<circle fill="#FFFFFF" stroke="#000000" stroke-width="0.01" stroke-miterlimit="10" cx="185.429" cy="459.197" r="4.251"/>
	<path fill="#0000FC" d="M185.43,469.826c5.87,0,10.629-4.76,10.629-10.631s-4.759-10.629-10.629-10.629
		c-5.872,0-10.631,4.758-10.631,10.629S179.558,469.826,185.43,469.826z M185.43,454.943c2.348,0,4.251,1.904,4.251,4.252
		s-1.903,4.252-4.251,4.252c-2.349,0-4.252-1.904-4.252-4.252S183.081,454.943,185.43,454.943z"/>
	<circle fill="#FFFFFF" stroke="#000000" stroke-width="0.01" stroke-miterlimit="10" cx="185.428" cy="459.195" r="4.251"/>
	<path fill="#00FF00" d="M185.514,328.541c-32.485,0-58.819,26.334-58.819,58.82c0,32.485,26.334,58.819,58.819,58.819
		s58.819-26.334,58.819-58.819C244.333,354.875,217.999,328.541,185.514,328.541z M185.514,441.928
		c-30.137,0-54.567-24.432-54.567-54.569c0-30.135,24.431-54.566,54.567-54.566c30.138,0,54.567,24.432,54.567,54.566
		C240.081,417.496,215.651,441.928,185.514,441.928z"/>
	<g>
		<circle fill="none" stroke="#D40000" stroke-width="0.25" stroke-miterlimit="10" cx="185.513" cy="387.359" r="5.5"/>
		<g>
			
				<line fill="none" stroke="#D40000" stroke-width="0.25" stroke-miterlimit="10" x1="185.513" y1="369.042" x2="185.513" y2="405.675"/>
			
				<line fill="none" stroke="#D40000" stroke-width="0.25" stroke-miterlimit="10" x1="203.832" y1="387.359" x2="167.197" y2="387.359"/>
		</g>
	</g>
	<path fill="#00FF00" d="M370.004,328.541c-32.484,0-58.818,26.334-58.818,58.82c0,32.485,26.334,58.819,58.818,58.819
		c32.485,0,58.819-26.334,58.819-58.819C428.824,354.875,402.49,328.541,370.004,328.541z M370.004,441.928
		c-30.137,0-54.566-24.432-54.566-54.569c0-30.135,24.43-54.566,54.566-54.566c30.138,0,54.567,24.432,54.567,54.566
		C424.572,417.496,400.142,441.928,370.004,441.928z"/>
	<g>
		<circle fill="none" stroke="#D40000" stroke-width="0.25" stroke-miterlimit="10" cx="370.004" cy="387.359" r="5.5"/>
		<g>
			
				<line fill="none" stroke="#D40000" stroke-width="0.25" stroke-miterlimit="10" x1="370.004" y1="369.042" x2="370.004" y2="405.675"/>
			
				<line fill="none" stroke="#D40000" stroke-width="0.25" stroke-miterlimit="10" x1="388.323" y1="387.359" x2="351.688" y2="387.359"/>
		</g>
	</g>
	<path fill="none" stroke="#000000" stroke-width="0.001" stroke-miterlimit="10" d="M369.963,303.229
		c-8.119,0-15.963,1.164-23.396,3.295c-15.404-21.373-40.49-35.305-68.849-35.305c-28.356,0-53.44,13.932-68.845,35.305
		c-7.436-2.131-15.279-3.295-23.399-3.295c-46.854,0-84.836,37.982-84.836,84.836c0,46.855,37.982,84.835,84.836,84.835
		c46.855,0,84.838-37.98,84.838-84.835c0-29.221-14.775-54.987-37.261-70.245c10.788-12.591,26.789-20.584,44.669-20.584
		c17.88,0,33.882,7.993,44.669,20.584c-22.484,15.259-37.262,41.025-37.262,70.245c0,46.855,37.984,84.835,84.836,84.835
		c46.856,0,84.839-37.98,84.839-84.835C454.802,341.211,416.82,303.229,369.963,303.229z"/>
	
		<line fill="none" stroke="#D40000" stroke-width="0.25" stroke-miterlimit="10" x1="277.588" y1="367.272" x2="277.588" y2="403.906"/>
	
		<line fill="none" stroke="#D40000" stroke-width="0.25" stroke-miterlimit="10" x1="369.621" y1="276.316" x2="369.621" y2="301.95"/>
	
		<line fill="none" stroke="#D40000" stroke-width="0.25" stroke-miterlimit="10" x1="97.304" y1="387.589" x2="62.27" y2="387.589"/>
	
		<line fill="none" stroke="#D40000" stroke-width="0.25" stroke-miterlimit="10" x1="491.304" y1="387.589" x2="456.27" y2="387.589"/>
	<circle fill="none" stroke="#000000" stroke-width="0.01" stroke-miterlimit="10" cx="185.645" cy="387.585" r="54.567"/>
	<circle fill="none" stroke="#000000" stroke-width="0.01" stroke-miterlimit="10" cx="370.145" cy="387.331" r="54.567"/>
</g>
<g id="LOGO_x26_TEXT">
	<g>
		<g>
			<g>
				<path fill="#FF0000" d="M70.667,519.248c0,2.646-1.607,4.25-3.97,4.25c-2.398,0-3.802-1.807-3.802-4.105
					c0-2.418,1.547-4.227,3.934-4.227C69.312,515.166,70.667,517.021,70.667,519.248z M64.826,519.357
					c0,1.58,0.744,2.693,1.967,2.693c1.235,0,1.943-1.174,1.943-2.742c0-1.449-0.696-2.693-1.955-2.693
					C65.546,516.615,64.826,517.787,64.826,519.357z"/>
				<path fill="#FF0000" d="M71.871,515.406c0.564-0.096,1.355-0.168,2.471-0.168c1.127,0,1.931,0.215,2.471,0.646
					c0.516,0.406,0.863,1.078,0.863,1.867c0,0.791-0.264,1.461-0.743,1.916c-0.624,0.586-1.547,0.85-2.627,0.85
					c-0.24,0-0.456-0.012-0.624-0.035v2.885h-1.811V515.406z M73.682,519.068c0.156,0.037,0.348,0.049,0.612,0.049
					c0.971,0,1.571-0.49,1.571-1.318c0-0.74-0.516-1.184-1.427-1.184c-0.372,0-0.624,0.035-0.755,0.07V519.068z"/>
				<path fill="#FF0000" d="M83.652,519.955h-2.975v1.916H84v1.496h-5.157v-8.07h4.989v1.498h-3.154v1.676h2.975V519.955z"/>
				<path fill="#FF0000" d="M85.251,523.367v-8.07h2.135l1.679,2.959c0.48,0.85,0.959,1.854,1.319,2.766h0.036
					c-0.12-1.066-0.156-2.156-0.156-3.365v-2.359h1.679v8.07h-1.919l-1.727-3.113c-0.48-0.861-1.007-1.904-1.403-2.85l-0.036,0.012
					c0.048,1.066,0.072,2.203,0.072,3.521v2.43H85.251z"/>
				<path fill="#FF0000" d="M100.764,519.955H97.79v1.916h3.322v1.496h-5.157v-8.07h4.989v1.498H97.79v1.676h2.975V519.955z"/>
				<path fill="#FF0000" d="M104.234,523.367v-3.305l-2.555-4.766h2.087l0.828,1.939c0.252,0.588,0.419,1.02,0.624,1.545h0.024
					c0.18-0.502,0.372-0.971,0.612-1.545l0.815-1.939h2.051l-2.663,4.707v3.363H104.234z"/>
				<path fill="#FF0000" d="M114.192,519.955h-2.975v1.916h3.322v1.496h-5.157v-8.07h4.989v1.498h-3.154v1.676h2.975V519.955z"/>
				<path fill="#FF0000" d="M117.182,523.367l-1.919-8.07h1.955l0.612,3.33c0.18,0.957,0.348,1.998,0.479,2.813h0.024
					c0.132-0.873,0.324-1.844,0.528-2.838l0.684-3.305h1.943l0.648,3.4c0.18,0.947,0.312,1.809,0.432,2.707h0.024
					c0.12-0.898,0.3-1.844,0.468-2.803l0.66-3.305h1.859l-2.087,8.07h-1.979l-0.684-3.473c-0.156-0.814-0.288-1.568-0.384-2.49
					h-0.024c-0.144,0.91-0.276,1.676-0.468,2.49l-0.768,3.473H117.182z"/>
				<path fill="#FF0000" d="M131.34,519.955h-2.975v1.916h3.322v1.496h-5.157v-8.07h4.989v1.498h-3.154v1.676h2.975V519.955z"/>
				<path fill="#FF0000" d="M134.821,521.295l-0.576,2.072h-1.895l2.47-8.07h2.399l2.506,8.07h-1.967l-0.624-2.072H134.821z
					 M136.873,519.932l-0.504-1.713c-0.144-0.479-0.288-1.076-0.408-1.557h-0.024c-0.12,0.48-0.24,1.09-0.372,1.557l-0.479,1.713
					H136.873z"/>
				<path fill="#FF0000" d="M140.81,515.406c0.588-0.096,1.463-0.168,2.435-0.168c1.2,0,2.039,0.18,2.615,0.635
					c0.479,0.383,0.744,0.945,0.744,1.688c0,1.029-0.732,1.736-1.427,1.986v0.037c0.563,0.227,0.875,0.766,1.079,1.51
					c0.252,0.908,0.504,1.963,0.66,2.273h-1.871c-0.132-0.227-0.324-0.887-0.564-1.879c-0.216-1.006-0.563-1.281-1.307-1.295h-0.552
					v3.174h-1.811V515.406z M142.621,518.879h0.72c0.912,0,1.451-0.457,1.451-1.162c0-0.742-0.504-1.113-1.343-1.125
					c-0.444,0-0.696,0.035-0.828,0.059V518.879z"/>
				<path fill="#FF0000" d="M154.995,518.121c-0.184-0.016-0.37-0.029-0.558-0.037s-0.374-0.012-0.558-0.012h-2.016v4.229
					c0,0.424,0.006,0.805,0.018,1.145c0.012,0.34,0.038,0.709,0.078,1.107h-1.08c0.016-0.207,0.03-0.4,0.042-0.58
					c0.012-0.18,0.022-0.357,0.03-0.533c0.008-0.176,0.014-0.355,0.018-0.539c0.004-0.184,0.006-0.383,0.006-0.6v-6.625
					c0-0.254-0.002-0.498-0.006-0.73c-0.004-0.23-0.01-0.439-0.018-0.621c0.184,0.016,0.372,0.027,0.564,0.033
					c0.192,0.01,0.38,0.014,0.564,0.014h1.8c0.184,0,0.37-0.004,0.558-0.014c0.188-0.006,0.374-0.018,0.558-0.033
					c-0.016,0.182-0.028,0.389-0.036,0.615c-0.008,0.229-0.012,0.475-0.012,0.736v1.234c0,0.264,0.004,0.488,0.012,0.672
					C154.966,517.764,154.979,517.945,154.995,518.121z M154.143,515.113h-2.28v0.768h2.28V515.113z M154.143,516.623h-2.28v0.742
					h2.28V516.623z M154.887,521.547c-0.08,0.479-0.248,0.955-0.504,1.432c-0.256,0.475-0.588,0.877-0.996,1.203
					c-0.08-0.111-0.19-0.223-0.33-0.334c-0.14-0.113-0.31-0.213-0.51-0.301c0.408-0.184,0.738-0.453,0.99-0.809
					s0.418-0.752,0.498-1.191c-0.28,0.008-0.566,0.018-0.858,0.029c-0.292,0.012-0.563,0.035-0.81,0.066v-0.924
					c0.256,0.033,0.532,0.057,0.828,0.072c0.295,0.018,0.592,0.025,0.888,0.025v-1.344c-0.432,0.018-0.852,0.053-1.26,0.109v-0.922
					c0.12,0.016,0.248,0.031,0.384,0.047s0.308,0.029,0.516,0.037s0.462,0.014,0.762,0.018c0.3,0.004,0.674,0.006,1.122,0.006
					c0.44,0,0.808-0.002,1.104-0.006s0.548-0.01,0.756-0.018c0.208-0.008,0.382-0.02,0.522-0.031
					c0.14-0.012,0.274-0.029,0.402-0.053v0.922c-0.392-0.057-0.816-0.092-1.272-0.109v1.344c0.296,0,0.596-0.008,0.9-0.025
					c0.304-0.016,0.584-0.039,0.84-0.072v0.924c-0.256-0.031-0.536-0.057-0.84-0.072s-0.604-0.023-0.9-0.023v1.078
					c0,0.326,0.008,0.623,0.024,0.885c0.016,0.266,0.036,0.488,0.06,0.672h-0.996c0.048-0.359,0.072-0.877,0.072-1.557v-1.078
					H154.887z M156.279,520.816v-1.344h-1.344v1.344H156.279z M160.227,514.371c-0.008,0.184-0.014,0.391-0.018,0.623
					c-0.004,0.23-0.006,0.475-0.006,0.73v7.631c0,0.256-0.022,0.463-0.066,0.623c-0.044,0.158-0.124,0.285-0.24,0.377
					c-0.116,0.092-0.276,0.164-0.48,0.215c-0.204,0.053-0.47,0.098-0.798,0.139c0.008-0.207-0.01-0.391-0.054-0.551
					s-0.13-0.316-0.258-0.467c0.232,0.008,0.414,0.006,0.546-0.006c0.132-0.014,0.232-0.041,0.3-0.084
					c0.068-0.045,0.11-0.109,0.126-0.191c0.016-0.084,0.024-0.195,0.024-0.33v-5.031h-2.148c-0.184,0-0.37,0.004-0.558,0.012
					s-0.374,0.02-0.558,0.035c0.016-0.184,0.028-0.354,0.036-0.514c0.008-0.16,0.012-0.373,0.012-0.635v-1.223
					c0-0.264-0.004-0.51-0.012-0.736c-0.008-0.229-0.02-0.434-0.036-0.617c0.184,0.016,0.37,0.027,0.558,0.035
					s0.374,0.012,0.558,0.012h1.956c0.184,0,0.37-0.004,0.558-0.012S160.042,514.387,160.227,514.371z M159.303,515.137h-2.376
					v0.756h2.376V515.137z M159.303,516.563h-2.376v0.756h2.376V516.563z"/>
				<path fill="#FF0000" d="M166.227,518.492c0.16,0,0.312-0.004,0.456-0.014c0.144-0.008,0.264-0.02,0.36-0.035l-0.24,4.385
					c-0.016,0.256-0.056,0.471-0.12,0.646s-0.172,0.324-0.324,0.443s-0.358,0.219-0.618,0.299c-0.26,0.08-0.594,0.152-1.002,0.217
					c0.008-0.176-0.026-0.383-0.102-0.617c-0.076-0.236-0.182-0.449-0.318-0.641c0.512,0.088,0.886,0.076,1.122-0.035
					c0.236-0.113,0.362-0.309,0.378-0.588l0.18-3.162h-1.344c-0.056,0.582-0.126,1.109-0.21,1.58
					c-0.084,0.473-0.188,0.904-0.312,1.301c-0.125,0.395-0.272,0.766-0.444,1.113s-0.374,0.693-0.606,1.037
					c-0.144-0.137-0.306-0.25-0.486-0.342c-0.18-0.092-0.362-0.148-0.546-0.174c0.336-0.424,0.612-0.852,0.828-1.287
					c0.216-0.436,0.39-0.922,0.522-1.463c0.132-0.539,0.228-1.154,0.288-1.85s0.11-1.521,0.15-2.48
					c-0.616,0-1.152,0.023-1.608,0.072v-1.043c0.336,0.033,0.712,0.055,1.128,0.066s0.924,0.018,1.524,0.018
					c0.6,0,1.11-0.006,1.53-0.018s0.786-0.033,1.098-0.066v1.043c-0.152-0.016-0.314-0.029-0.486-0.043
					c-0.172-0.012-0.366-0.02-0.582-0.023c-0.216-0.004-0.456-0.008-0.72-0.012s-0.564-0.006-0.9-0.006
					c-0.016,0.305-0.032,0.594-0.048,0.869s-0.032,0.545-0.048,0.809H166.227z M164.739,515.725
					c-0.048-0.24-0.114-0.496-0.198-0.768s-0.182-0.523-0.294-0.754l1.08-0.443c0.064,0.199,0.146,0.432,0.246,0.695
					c0.1,0.264,0.206,0.521,0.318,0.777L164.739,515.725z M169.707,521.547c0.288-0.432,0.508-1.041,0.66-1.828
					c0.152-0.785,0.244-1.762,0.276-2.928h-1.812c-0.136,0.344-0.308,0.695-0.516,1.053c-0.208,0.361-0.404,0.656-0.588,0.889
					c-0.128-0.09-0.272-0.182-0.432-0.277s-0.316-0.178-0.468-0.25c0.304-0.361,0.56-0.721,0.768-1.084
					c0.208-0.365,0.382-0.732,0.522-1.104c0.14-0.371,0.25-0.748,0.33-1.131c0.08-0.385,0.144-0.783,0.192-1.199
					c0.08,0.041,0.18,0.082,0.3,0.125c0.12,0.045,0.244,0.084,0.372,0.121c0.128,0.035,0.25,0.07,0.366,0.102
					c0.116,0.031,0.21,0.053,0.282,0.061c0.056,0.008,0.084,0.037,0.084,0.09s-0.044,0.098-0.132,0.139
					c-0.04,0.023-0.116,0.15-0.228,0.383c-0.112,0.23-0.28,0.627-0.504,1.186h2.016c0.48,0,0.832-0.006,1.056-0.018
					s0.404-0.031,0.54-0.055v1.006c-0.152-0.016-0.312-0.025-0.48-0.029s-0.392-0.006-0.672-0.006
					c-0.048,0.742-0.102,1.383-0.162,1.922s-0.138,1.018-0.234,1.432c-0.096,0.416-0.214,0.785-0.354,1.107
					c-0.14,0.324-0.31,0.646-0.51,0.965c0.432,0.336,0.868,0.582,1.308,0.736c0.44,0.156,0.9,0.25,1.38,0.283
					c-0.192,0.182-0.348,0.381-0.468,0.592s-0.212,0.426-0.276,0.641c-0.504-0.207-0.958-0.418-1.362-0.629s-0.79-0.484-1.158-0.82
					c-0.28,0.352-0.584,0.65-0.912,0.898s-0.712,0.488-1.152,0.719c-0.104-0.184-0.234-0.35-0.39-0.496
					c-0.156-0.148-0.338-0.273-0.546-0.377c0.512-0.178,0.946-0.379,1.302-0.605c0.356-0.229,0.694-0.521,1.014-0.881
					c-0.248-0.367-0.478-0.855-0.69-1.461c-0.212-0.607-0.366-1.334-0.462-2.182l0.876-0.215c0.136,0.822,0.274,1.486,0.414,1.988
					C169.396,520.912,169.546,521.291,169.707,521.547z"/>
				<path fill="#FF0000" d="M175.911,519.953c-0.248,0.279-0.492,0.549-0.732,0.809c-0.24,0.26-0.464,0.492-0.672,0.701
					c-0.072-0.217-0.146-0.395-0.222-0.539c-0.076-0.145-0.182-0.283-0.318-0.42c0.312-0.207,0.622-0.453,0.93-0.736
					s0.594-0.588,0.858-0.91c0.264-0.324,0.502-0.658,0.714-1.008c0.212-0.346,0.382-0.691,0.51-1.035h-1.284
					c-0.256,0-0.514,0.008-0.774,0.023c-0.26,0.018-0.482,0.045-0.666,0.084v-1.018c0.232,0.041,0.532,0.068,0.9,0.084
					c0.368,0.016,0.732,0.023,1.092,0.023c0.28,0,0.526-0.002,0.738-0.006s0.398-0.01,0.558-0.018s0.304-0.018,0.432-0.029
					s0.252-0.027,0.372-0.043c-0.328,0.758-0.62,1.383-0.876,1.875c-0.256,0.492-0.476,0.857-0.66,1.096v3.678
					c0,0.359,0.004,0.691,0.012,0.994c0.008,0.305,0.024,0.639,0.048,1.006h-1.02c0.024-0.367,0.04-0.701,0.048-1.006
					c0.008-0.303,0.012-0.635,0.012-0.994V519.953z M176.415,515.76c-0.056-0.279-0.136-0.563-0.24-0.85
					c-0.104-0.287-0.244-0.574-0.42-0.863l1.02-0.299c0.272,0.527,0.52,1.09,0.744,1.689L176.415,515.76z M177.723,520.756
					c-0.128-0.295-0.258-0.557-0.39-0.785c-0.132-0.227-0.302-0.473-0.51-0.736l0.72-0.479c0.2,0.262,0.372,0.498,0.516,0.705
					c0.144,0.209,0.304,0.449,0.48,0.719L177.723,520.756z M182.475,522.959c0,0.209,0.042,0.352,0.126,0.426
					c0.084,0.076,0.29,0.113,0.618,0.113c0.16,0,0.29-0.008,0.39-0.023s0.182-0.059,0.246-0.131s0.116-0.184,0.156-0.336
					c0.04-0.152,0.084-0.359,0.132-0.623c0.136,0.184,0.29,0.322,0.462,0.414s0.354,0.145,0.546,0.16
					c-0.136,0.354-0.25,0.623-0.342,0.816c-0.092,0.191-0.202,0.332-0.33,0.424s-0.29,0.146-0.486,0.162
					c-0.196,0.016-0.466,0.023-0.81,0.023c-0.352,0-0.636-0.016-0.852-0.047c-0.216-0.033-0.382-0.088-0.498-0.168
					c-0.116-0.08-0.192-0.18-0.228-0.299c-0.036-0.121-0.054-0.271-0.054-0.455v-2.781h-0.768c-0.016,0.457-0.074,0.877-0.174,1.266
					c-0.1,0.387-0.256,0.744-0.468,1.07c-0.212,0.328-0.49,0.633-0.834,0.912c-0.344,0.279-0.76,0.539-1.248,0.777
					c-0.096-0.182-0.204-0.342-0.324-0.479c-0.12-0.137-0.276-0.283-0.468-0.443c0.888-0.225,1.54-0.582,1.956-1.078
					c0.416-0.494,0.636-1.17,0.66-2.025c-0.224,0.01-0.426,0.02-0.606,0.031c-0.18,0.012-0.35,0.029-0.51,0.053
					c0.016-0.158,0.03-0.359,0.042-0.604s0.018-0.494,0.018-0.748v-3.57c0-0.256-0.006-0.498-0.018-0.725
					c-0.012-0.229-0.026-0.438-0.042-0.631c0.216,0.033,0.55,0.059,1.002,0.078c0.452,0.021,1.002,0.031,1.65,0.031
					s1.194-0.01,1.638-0.031c0.444-0.02,0.782-0.045,1.014-0.078c-0.016,0.168-0.028,0.373-0.036,0.611
					c-0.008,0.24-0.012,0.488-0.012,0.744v3.57c0,0.254,0.004,0.5,0.012,0.736c0.008,0.234,0.02,0.441,0.036,0.615
					c-0.056-0.008-0.138-0.016-0.246-0.023s-0.234-0.016-0.378-0.023s-0.298-0.016-0.462-0.023s-0.334-0.014-0.51-0.014V522.959z
					 M183.123,515.354h-3.396v0.994h3.396V515.354z M183.123,517.09h-3.396v1.02h3.396V517.09z M183.123,518.852h-3.396v1.029h3.396
					V518.852z"/>
				<path fill="#FF0000" d="M188.858,514.609c0.336,0.209,0.642,0.406,0.918,0.594c0.276,0.188,0.562,0.389,0.858,0.605l-0.66,0.719
					c-0.264-0.232-0.512-0.447-0.744-0.646c-0.232-0.201-0.488-0.412-0.768-0.635c-0.136,0.223-0.292,0.461-0.468,0.713
					c-0.176,0.25-0.376,0.525-0.6,0.82c0.16,0.023,0.338,0.041,0.534,0.053c0.196,0.012,0.43,0.018,0.702,0.018
					c0.336,0,0.62-0.01,0.852-0.029s0.44-0.049,0.624-0.09v0.924c-0.288-0.072-0.676-0.113-1.164-0.121v1.174
					c0.32-0.008,0.598-0.021,0.834-0.041c0.236-0.02,0.458-0.051,0.666-0.09v0.98c-0.208-0.039-0.43-0.068-0.666-0.09
					c-0.236-0.018-0.514-0.027-0.834-0.027v3.053c0.336-0.063,0.654-0.127,0.954-0.191c0.3-0.063,0.582-0.131,0.846-0.203
					c-0.064,0.191-0.102,0.355-0.114,0.49c-0.012,0.137-0.014,0.262-0.006,0.371c-0.8,0.137-1.524,0.27-2.172,0.396
					s-1.284,0.271-1.908,0.432c-0.032-0.168-0.072-0.316-0.12-0.443c-0.048-0.129-0.128-0.287-0.24-0.48
					c0.336-0.031,0.666-0.066,0.99-0.107c0.324-0.039,0.638-0.084,0.942-0.131v-3.199c-0.36,0.01-0.672,0.023-0.936,0.041
					c-0.264,0.021-0.508,0.051-0.732,0.09v-0.98c0.232,0.039,0.478,0.07,0.738,0.09c0.26,0.02,0.57,0.033,0.93,0.041v-1.162
					c-0.2,0.008-0.374,0.021-0.522,0.037c-0.148,0.016-0.29,0.039-0.426,0.072v-0.576c-0.064,0.088-0.132,0.174-0.204,0.258
					c-0.072,0.084-0.144,0.17-0.216,0.258c-0.136-0.121-0.26-0.221-0.372-0.301s-0.248-0.162-0.408-0.25
					c0.552-0.488,1.008-0.998,1.368-1.535c0.36-0.535,0.664-1.137,0.912-1.807c0.192,0.086,0.378,0.166,0.558,0.238
					c0.18,0.072,0.35,0.137,0.51,0.191c0.152,0.041,0.14,0.092-0.036,0.156c-0.08,0.023-0.154,0.066-0.222,0.125
					C188.989,514.473,188.922,514.539,188.858,514.609z M186.951,521.99c-0.112-0.576-0.28-1.15-0.504-1.727l0.852-0.238
					c0.104,0.279,0.194,0.549,0.27,0.809c0.076,0.26,0.154,0.564,0.234,0.916L186.951,521.99z M190.623,520.264
					c-0.096,0.281-0.192,0.535-0.288,0.768c-0.096,0.232-0.212,0.512-0.348,0.838l-0.768-0.262c0.128-0.32,0.234-0.604,0.318-0.852
					s0.17-0.512,0.258-0.791L190.623,520.264z M194.63,523.008c0,0.225,0.034,0.367,0.102,0.432
					c0.068,0.063,0.214,0.096,0.438,0.096c0.16,0,0.294-0.01,0.402-0.031c0.108-0.02,0.196-0.063,0.264-0.131
					c0.068-0.066,0.124-0.17,0.168-0.305c0.044-0.137,0.086-0.32,0.126-0.551c0.152,0.135,0.302,0.232,0.45,0.293
					c0.148,0.059,0.338,0.113,0.57,0.16c-0.104,0.297-0.206,0.533-0.306,0.715c-0.1,0.18-0.222,0.316-0.366,0.412
					s-0.322,0.16-0.534,0.191c-0.212,0.033-0.482,0.049-0.81,0.049c-0.28,0-0.506-0.016-0.678-0.049
					c-0.172-0.031-0.31-0.082-0.414-0.148c-0.104-0.068-0.174-0.158-0.21-0.27c-0.036-0.113-0.054-0.248-0.054-0.408v-1.785h-0.708
					c-0.024,0.393-0.096,0.736-0.216,1.037c-0.12,0.299-0.292,0.566-0.516,0.803c-0.224,0.234-0.504,0.441-0.84,0.615
					c-0.336,0.178-0.732,0.336-1.188,0.48c-0.08-0.184-0.162-0.344-0.246-0.48c-0.084-0.135-0.194-0.27-0.33-0.406
					c0.464-0.08,0.85-0.174,1.158-0.281s0.554-0.24,0.738-0.396c0.184-0.154,0.316-0.344,0.396-0.568
					c0.08-0.223,0.128-0.49,0.144-0.803c-0.496,0.01-0.852,0.033-1.068,0.072c0.008-0.055,0.014-0.135,0.018-0.24
					c0.004-0.104,0.008-0.213,0.012-0.33c0.004-0.113,0.008-0.229,0.012-0.34s0.006-0.205,0.006-0.275v-1.223
					c0-0.23-0.004-0.451-0.012-0.658c-0.008-0.209-0.02-0.355-0.036-0.443c0.072,0,0.192,0.002,0.36,0.006s0.36,0.008,0.576,0.012
					s0.446,0.008,0.69,0.012c0.244,0.006,0.474,0.008,0.69,0.008c0.76,0,1.354-0.002,1.782-0.008
					c0.428-0.004,0.734-0.014,0.918-0.029c-0.008,0.088-0.016,0.234-0.024,0.443c-0.008,0.207-0.012,0.428-0.012,0.658v1.223
					c0,0.07,0.002,0.164,0.006,0.275c0.004,0.111,0.008,0.227,0.012,0.34c0.004,0.117,0.008,0.227,0.012,0.33
					c0.004,0.105,0.006,0.186,0.006,0.24c-0.136-0.023-0.314-0.041-0.534-0.053s-0.538-0.02-0.954-0.02V523.008z M192.267,516.959
					c-0.064-0.129-0.136-0.266-0.216-0.414c-0.08-0.148-0.168-0.289-0.264-0.426l0.996-0.25c0.088,0.176,0.164,0.342,0.228,0.502
					c0.064,0.16,0.12,0.355,0.168,0.588h0.9c0.08-0.184,0.152-0.365,0.216-0.545c0.064-0.182,0.124-0.373,0.18-0.582
					c0.184,0.064,0.35,0.119,0.498,0.162c0.148,0.045,0.298,0.086,0.45,0.125c0.128,0.041,0.132,0.1,0.012,0.18
					c-0.064,0.041-0.124,0.105-0.18,0.193c-0.056,0.088-0.14,0.242-0.252,0.467c0.4-0.008,0.756-0.02,1.068-0.031
					s0.608-0.029,0.888-0.053v0.863c-0.4-0.033-0.854-0.057-1.362-0.072c-0.508-0.016-1.126-0.025-1.854-0.025
					c-0.744,0-1.366,0.01-1.866,0.025s-0.95,0.039-1.35,0.072v-0.863c0.304,0.023,0.598,0.041,0.882,0.053
					C191.692,516.939,191.979,516.951,192.267,516.959z M193.263,514.98c-0.064-0.182-0.13-0.357-0.198-0.525
					s-0.15-0.328-0.246-0.48l1.02-0.262c0.208,0.422,0.34,0.846,0.396,1.268c0.512-0.008,0.954-0.02,1.326-0.035
					s0.71-0.031,1.014-0.047v0.85c-0.36-0.039-0.768-0.066-1.224-0.078s-1.024-0.018-1.704-0.018c-0.672,0-1.24,0.008-1.704,0.023
					c-0.464,0.018-0.876,0.041-1.236,0.072v-0.85c0.328,0.031,0.694,0.053,1.098,0.064
					C192.208,514.975,192.694,514.98,193.263,514.98z M195.279,518.982h-3.336v0.623h3.336V518.982z M195.279,520.301h-3.336v0.67
					h3.336V520.301z"/>
			</g>
			<g>
				<path fill="#FF0000" d="M63.327,501.521c0.492,0.252,1.247,0.504,2.027,0.504c0.839,0,1.283-0.348,1.283-0.875
					c0-0.502-0.384-0.789-1.355-1.137c-1.343-0.467-2.219-1.209-2.219-2.383c0-1.377,1.151-2.432,3.058-2.432
					c0.912,0,1.583,0.193,2.063,0.408l-0.408,1.473c-0.324-0.156-0.9-0.383-1.691-0.383s-1.175,0.359-1.175,0.777
					c0,0.516,0.456,0.742,1.499,1.137c1.427,0.527,2.099,1.27,2.099,2.408c0,1.354-1.043,2.502-3.262,2.502
					c-0.923,0-1.835-0.24-2.291-0.492L63.327,501.521z"/>
				<path fill="#FF0000" d="M71.306,496.863h-2.171v-1.531h6.213v1.531h-2.207v6.539h-1.835V496.863z"/>
				<path fill="#FF0000" d="M81.132,499.99h-2.975v1.914h3.322v1.498h-5.157v-8.07h4.989v1.496h-3.154v1.676h2.975V499.99z"/>
				<path fill="#FF0000" d="M82.731,495.439c0.588-0.096,1.463-0.168,2.435-0.168c1.2,0,2.039,0.18,2.615,0.635
					c0.479,0.383,0.744,0.945,0.744,1.689c0,1.029-0.732,1.734-1.427,1.986v0.037c0.563,0.227,0.875,0.766,1.079,1.508
					c0.252,0.91,0.504,1.963,0.66,2.275h-1.871c-0.132-0.229-0.324-0.887-0.564-1.881c-0.216-1.006-0.563-1.281-1.307-1.293h-0.552
					v3.174h-1.811V495.439z M84.542,498.912h0.72c0.912,0,1.451-0.455,1.451-1.162c0-0.742-0.504-1.113-1.343-1.125
					c-0.444,0-0.696,0.037-0.828,0.061V498.912z"/>
				<path fill="#FF0000" d="M94.656,499.99h-2.975v1.914h3.322v1.498h-5.157v-8.07h4.989v1.496h-3.154v1.676h2.975V499.99z"/>
				<path fill="#FF0000" d="M103.654,499.283c0,2.645-1.607,4.25-3.97,4.25c-2.398,0-3.802-1.807-3.802-4.105
					c0-2.42,1.547-4.229,3.934-4.229C102.299,495.199,103.654,497.057,103.654,499.283z M97.813,499.391
					c0,1.58,0.744,2.693,1.967,2.693c1.235,0,1.943-1.174,1.943-2.74c0-1.449-0.696-2.695-1.955-2.695
					C98.533,496.648,97.813,497.822,97.813,499.391z"/>
				<path fill="#FF0000" d="M104.918,501.521c0.492,0.252,1.247,0.504,2.027,0.504c0.839,0,1.283-0.348,1.283-0.875
					c0-0.502-0.384-0.789-1.355-1.137c-1.343-0.467-2.219-1.209-2.219-2.383c0-1.377,1.151-2.432,3.058-2.432
					c0.912,0,1.583,0.193,2.063,0.408l-0.408,1.473c-0.324-0.156-0.9-0.383-1.691-0.383s-1.175,0.359-1.175,0.777
					c0,0.516,0.456,0.742,1.5,1.137c1.427,0.527,2.099,1.27,2.099,2.408c0,1.354-1.043,2.502-3.262,2.502
					c-0.923,0-1.835-0.24-2.291-0.492L104.918,501.521z"/>
				<path fill="#FF0000" d="M117.275,503.174c-0.336,0.168-1.092,0.348-2.075,0.348c-2.794,0-4.233-1.736-4.233-4.035
					c0-2.754,1.967-4.287,4.414-4.287c0.947,0,1.667,0.193,1.991,0.361L117,497.008c-0.372-0.156-0.888-0.299-1.535-0.299
					c-1.451,0-2.579,0.873-2.579,2.67c0,1.615,0.959,2.633,2.59,2.633c0.552,0,1.164-0.119,1.523-0.262L117.275,503.174z"/>
				<path fill="#FF0000" d="M125.518,499.283c0,2.645-1.607,4.25-3.97,4.25c-2.399,0-3.802-1.807-3.802-4.105
					c0-2.42,1.547-4.229,3.934-4.229C124.163,495.199,125.518,497.057,125.518,499.283z M119.677,499.391
					c0,1.58,0.744,2.693,1.967,2.693c1.235,0,1.943-1.174,1.943-2.74c0-1.449-0.696-2.695-1.955-2.695
					C120.397,496.648,119.677,497.822,119.677,499.391z"/>
				<path fill="#FF0000" d="M126.722,495.439c0.564-0.096,1.355-0.168,2.471-0.168c1.127,0,1.931,0.217,2.471,0.646
					c0.516,0.408,0.863,1.078,0.863,1.869c0,0.789-0.264,1.459-0.744,1.914c-0.624,0.588-1.547,0.852-2.626,0.852
					c-0.24,0-0.456-0.012-0.624-0.037v2.887h-1.811V495.439z M128.533,499.104c0.156,0.035,0.348,0.047,0.612,0.047
					c0.971,0,1.571-0.49,1.571-1.316c0-0.742-0.516-1.186-1.427-1.186c-0.372,0-0.624,0.037-0.756,0.072V499.104z"/>
				<path fill="#FF0000" d="M138.504,499.99h-2.975v1.914h3.322v1.498h-5.157v-8.07h4.989v1.496h-3.154v1.676h2.975V499.99z"/>
			</g>
		</g>
		<g>
			<ellipse fill="#FFFFFF" cx="258.295" cy="515.725" rx="8.11" ry="8.096"/>
			<path fill="#FF0000" d="M258.199,506.74c2.518,0,4.661,0.877,6.429,2.631c0.846,0.846,1.489,1.811,1.928,2.896
				s0.659,2.238,0.659,3.457c0,1.23-0.217,2.383-0.65,3.457c-0.434,1.074-1.075,2.023-1.92,2.848
				c-0.879,0.865-1.875,1.529-2.989,1.988c-1.114,0.461-2.267,0.691-3.455,0.691c-1.189,0-2.328-0.227-3.416-0.682
				s-2.063-1.113-2.924-1.975c-0.863-0.859-1.52-1.83-1.969-2.912c-0.451-1.08-0.676-2.219-0.676-3.416
				c0-1.188,0.228-2.33,0.683-3.426s1.118-2.078,1.984-2.943C253.597,507.611,255.702,506.74,258.199,506.74z M258.231,508.361
				c-2.057,0-3.787,0.715-5.19,2.148c-0.708,0.717-1.251,1.523-1.631,2.416c-0.381,0.893-0.571,1.826-0.571,2.799
				c0,0.963,0.19,1.891,0.571,2.783c0.38,0.895,0.923,1.691,1.631,2.391c0.707,0.701,1.504,1.236,2.394,1.605
				c0.89,0.367,1.822,0.553,2.796,0.553c0.964,0,1.898-0.188,2.805-0.561c0.905-0.375,1.722-0.916,2.45-1.621
				c1.404-1.369,2.105-3.086,2.105-5.15c0-0.994-0.182-1.936-0.546-2.822c-0.364-0.889-0.895-1.68-1.591-2.375
				C262.007,509.082,260.267,508.361,258.231,508.361z M258.119,514.232l-1.206,0.627c-0.128-0.268-0.286-0.457-0.474-0.563
				s-0.362-0.16-0.523-0.16c-0.803,0-1.205,0.529-1.205,1.588c0,0.482,0.102,0.867,0.305,1.156c0.204,0.289,0.504,0.432,0.9,0.432
				c0.526,0,0.896-0.256,1.109-0.77l1.109,0.563c-0.236,0.438-0.563,0.783-0.98,1.033c-0.418,0.252-0.878,0.379-1.382,0.379
				c-0.804,0-1.453-0.246-1.945-0.74c-0.493-0.49-0.739-1.176-0.739-2.053c0-0.855,0.249-1.533,0.747-2.037
				c0.499-0.502,1.128-0.754,1.889-0.754C256.838,512.934,257.636,513.367,258.119,514.232z M263.31,514.232l-1.189,0.627
				c-0.128-0.268-0.287-0.457-0.474-0.563c-0.188-0.105-0.367-0.16-0.538-0.16c-0.804,0-1.206,0.529-1.206,1.588
				c0,0.482,0.101,0.867,0.305,1.156c0.203,0.289,0.503,0.432,0.9,0.432c0.524,0,0.895-0.256,1.108-0.77l1.125,0.563
				c-0.246,0.438-0.579,0.783-0.996,1.033c-0.418,0.252-0.873,0.379-1.366,0.379c-0.814,0-1.465-0.246-1.952-0.74
				c-0.488-0.49-0.732-1.176-0.732-2.053c0-0.855,0.249-1.533,0.747-2.037c0.498-0.502,1.127-0.754,1.888-0.754
				C262.045,512.934,262.838,513.367,263.31,514.232z"/>
			<g>
				<ellipse fill="#FFFFFF" cx="278.872" cy="515.761" rx="8.186" ry="8.173"/>
				<g>
					<path fill="#FF0000" d="M279.012,506.74c2.517,0,4.649,0.871,6.396,2.615c1.746,1.732,2.62,3.855,2.62,6.369
						s-0.858,4.621-2.572,6.32c-1.811,1.775-3.959,2.664-6.444,2.664c-2.433,0-4.543-0.883-6.333-2.648
						c-1.768-1.764-2.652-3.877-2.652-6.336c0-2.449,0.884-4.572,2.652-6.369C274.426,507.611,276.537,506.74,279.012,506.74z
						 M279.043,508.359c-2.046,0-3.776,0.723-5.19,2.168c-1.469,1.486-2.202,3.219-2.202,5.197c0,2,0.729,3.723,2.186,5.166
						c1.457,1.455,3.193,2.182,5.207,2.182c2.003,0,3.75-0.732,5.24-2.199c1.414-1.367,2.122-3.084,2.122-5.148
						c0-2.053-0.718-3.785-2.153-5.197C282.826,509.082,281.09,508.359,279.043,508.359z M275.026,514.455
						c0.171-1.1,0.615-1.953,1.333-2.557c0.718-0.605,1.591-0.908,2.62-0.908c1.414,0,2.54,0.455,3.375,1.365
						c0.836,0.908,1.254,2.074,1.254,3.496c0,1.381-0.434,2.527-1.302,3.441c-0.868,0.914-1.993,1.371-3.375,1.371
						c-1.017,0-1.896-0.305-2.635-0.914s-1.184-1.475-1.334-2.598h2.267c0.054,1.09,0.712,1.637,1.977,1.637
						c0.632,0,1.141-0.273,1.526-0.818c0.386-0.547,0.58-1.273,0.58-2.182c0-0.953-0.177-1.678-0.53-2.176
						c-0.354-0.496-0.862-0.744-1.527-0.744c-1.2,0-1.875,0.527-2.025,1.586h0.659l-1.783,1.781l-1.785-1.781H275.026
						L275.026,514.455z"/>
				</g>
			</g>
			<ellipse fill="#FFFFFF" cx="299.879" cy="515.811" rx="7.953" ry="7.939"/>
			<path fill="#FF0000" d="M299.825,506.74c2.527,0,4.66,0.865,6.396,2.598c1.746,1.744,2.62,3.873,2.62,6.387
				c0,2.523-0.858,4.625-2.572,6.305c-1.822,1.787-3.97,2.68-6.444,2.68c-2.433,0-4.543-0.883-6.333-2.648
				c-1.768-1.764-2.652-3.877-2.652-6.336c0-2.461,0.884-4.588,2.652-6.385C295.229,507.605,297.338,506.74,299.825,506.74z
				 M299.856,508.359c-2.046,0-3.776,0.717-5.19,2.15c-1.469,1.498-2.202,3.236-2.202,5.215c0,1.99,0.729,3.711,2.186,5.164
				c1.457,1.457,3.192,2.184,5.207,2.184c2.003,0,3.75-0.732,5.24-2.199c1.414-1.357,2.122-3.074,2.122-5.148
				c0-2.043-0.718-3.781-2.153-5.215S301.892,508.359,299.856,508.359z M302.267,513.494v3.674h-1.028v4.363h-2.796v-4.363h-1.028
				v-3.674c0-0.162,0.056-0.297,0.168-0.408c0.113-0.113,0.249-0.17,0.41-0.17h3.697c0.15,0,0.284,0.057,0.402,0.17
				C302.208,513.197,302.267,513.334,302.267,513.494z M298.586,511.184c0-0.844,0.418-1.268,1.254-1.268s1.253,0.424,1.253,1.268
				c0,0.834-0.418,1.252-1.253,1.252S298.586,512.018,298.586,511.184z"/>
		</g>
		<g>
			<g>
				<g>
					<path fill="#FF0000" d="M395.521,510.707l-0.608-2.119c-0.067-0.229-0.277-0.389-0.514-0.389c-0.05,0-0.101,0.008-0.149,0.021
						l-0.78,0.225c-0.104,0.021-0.155-0.049-0.155-0.168l0,0c0.013-1.012-0.256-1.924-0.787-2.658
						c-0.675-0.934-1.707-1.488-2.898-1.559c-0.092-0.004-0.181-0.01-0.27-0.01c-1.885,0-3.247,1.467-3.618,2.916
						c-0.285,1.119-0.043,2.76,1.143,3.908c0.462,0.449,1.031,0.787,1.692,1.012l0.13,0.043c0.037,0.018,0.066,0.07,0.034,0.15
						c-1.15,2.066-2.62,2.07-3.804,2.07c-0.687,0-1.328-0.33-1.904-0.975c-0.079-0.107-0.079-0.242-0.012-0.357
						c1.753-2.889,2.643-7.107,2.643-12.545c0-6.223-3.1-6.895-4.433-6.895c-1.336,0-4.447,0.703-4.447,7.209
						c0,1.201,0.1,7.359,2.028,11.867c0.056,0.145,0.06,0.287-0.035,0.375c-1.1,0.896-2.163,1.031-2.708,1.031
						c-1.133,0-1.684-0.604-1.684-1.848v-8.705c0-0.295-0.24-0.535-0.535-0.535h-2.21c-0.294,0-0.534,0.24-0.534,0.535v0.568
						c-0.009,0.158-0.156,0.148-0.246,0.117l-0.065-0.027c-0.971-0.387-1.943-0.471-2.608-0.471c-1.79,0-5.972,0.635-6.174,6.521
						c-0.007,0.037-0.012,0.074-0.012,0.111v0.236c-0.001,0.008-0.004,0.076-0.004,0.086l0.004,0.781
						c0,1.756-1.191,2.574-3.752,2.574c-0.894,0-1.83-0.689-2.63-1.367c-0.062-0.066-0.109-0.148-0.033-0.357
						c0.013-0.037,0.021-0.072,0.025-0.107c0.054-0.16,0.107-0.318,0.161-0.473c0.787-2.262-0.251-4.377-1.259-6.422
						c-0.702-1.43-1.43-2.904-1.43-4.299c0-3.057,2.127-4.145,4.114-4.145c1.979,0,2.774,1.354,3.022,1.938l0.434,1.014
						c0.085,0.197,0.278,0.326,0.492,0.326c0.072,0,0.144-0.016,0.211-0.043l2.031-0.867c0.131-0.057,0.234-0.164,0.285-0.293
						c0.054-0.131,0.053-0.279-0.005-0.41l-0.433-1.014c-0.396-0.92-1.996-3.926-6.038-3.926c-4.352,0-7.394,3.051-7.394,7.42
						c0,2.154,0.938,4.061,1.768,5.744c0.656,1.336,1.277,2.6,1.18,3.539c-0.014,0.037-0.025,0.037-0.033,0.037
						c-0.015,0-0.033-0.004-0.051-0.012c-0.72-0.404-1.404-0.6-2.097-0.6c-2.331,0-4.157,1.727-4.157,3.928
						c0,2.199,1.856,3.988,4.138,3.988c1.408,0,2.522-0.576,3.403-1.758c0.077-0.098,0.143-0.107,0.183-0.107
						c0.066,0,0.147,0.033,0.236,0.096c1.337,0.984,2.569,1.445,3.875,1.445c1.886,0,3.504-0.426,4.696-1.229l0.001,0.004
						l0.19-0.137c0.141-0.102,0.239-0.15,0.311-0.15c0.032,0,0.08,0.01,0.152,0.086l0.026,0.025c1.05,1.145,2.582,1.725,4.561,1.725
						c1.742,0,3.144-0.451,4.17-1.346l0.008-0.006c0.099-0.078,0.187-0.119,0.264-0.119c0.064,0,0.13,0.029,0.201,0.088
						c0.871,0.719,2.023,1.113,3.24,1.113c0.835,0,2.451-0.168,4.121-1.275l0.002,0.01l0.195-0.143
						c0.113-0.084,0.213-0.127,0.297-0.127c0.065,0,0.129,0.027,0.192,0.082c1.147,1.154,2.513,1.738,4.061,1.738
						c2.435,0,5.461-0.598,7.353-5.205l0,0c0.04-0.107,0.142-0.158,0.251-0.184c0.503-0.088,1.023-0.211,1.554-0.361l1.063-0.303
						c0.136-0.039,0.249-0.131,0.318-0.256C395.543,510.99,395.56,510.842,395.521,510.707z M351.466,513.496
						c-0.282,0.445-0.557,0.635-0.916,0.635c-0.537,0-0.858-0.359-0.858-0.713c0-0.326,0.27-0.656,0.877-0.656
						c0.229,0,0.355,0.055,0.862,0.42C351.548,513.27,351.515,513.4,351.466,513.496z M370.375,513.436
						c-0.424,0.486-1.078,0.695-2.19,0.695c-1.896,0-2.865-0.541-2.905-3.504v-0.311c0.044-3.275,1.521-3.547,2.905-3.547
						c0.938,0,1.579,0.191,2.009,0.59c0.048,0.051,0.064,0.111,0.051,0.189c-0.272,1.553-0.471,3.752,0.088,5.566h-0.001
						l0.066,0.207C370.408,513.357,370.408,513.387,370.375,513.436z M381.23,508.941c-0.05,0.094-0.133,0.078-0.164-0.01
						c-0.927-3.48-1.004-7.23-1.004-8.344c0-2.713,0.683-3.936,1.168-3.936c0.573,0,1.153,1.244,1.153,3.621
						C382.383,503.807,381.993,506.717,381.23,508.941z M389.979,508.732c-0.018,0.055-0.056,0.102-0.17,0.102
						c-0.025,0-0.048-0.002-0.076-0.008c-0.303-0.088-0.474-0.213-0.566-0.303c-0.326-0.314-0.25-0.744-0.247-0.748
						c0.028-0.115,0.181-0.445,0.48-0.447l0.029,0.002c0.206,0.012,0.346,0.076,0.438,0.203
						C390.042,507.777,390.083,508.223,389.979,508.732z"/>
				</g>
				<g>
					<g>
						<path fill="#FF0000" d="M350.94,524.402c-0.173,0.18-0.427,0.26-0.809,0.26h-1.023v-4.107h1.028
							c0.382,0,0.631,0.08,0.804,0.254c0.185,0.191,0.254,0.461,0.254,0.867c0,0.275-0.027,0.506-0.214,0.691
							c-0.063,0.064-0.133,0.109-0.213,0.145c0.086,0.033,0.161,0.086,0.22,0.15c0.203,0.217,0.221,0.529,0.221,0.783
							C351.208,523.912,351.137,524.201,350.94,524.402z M350.062,521.137h-0.307v1.115h0.307c0.342,0,0.485-0.168,0.485-0.561
							C350.547,521.277,350.409,521.137,350.062,521.137z M350.068,522.801h-0.313v1.279h0.313c0.353,0,0.49-0.16,0.49-0.643
							C350.558,522.982,350.416,522.801,350.068,522.801z"/>
						<path fill="#FF0000" d="M354.09,523.053v1.609h-0.646v-1.609l-0.798-2.498h0.717l0.405,1.627l0.408-1.627h0.711
							L354.09,523.053z"/>
						<path fill="#FF0000" d="M360.431,524.322c-0.168,0.191-0.405,0.34-0.797,0.34h-1.048v-4.107h1.048
							c0.392,0,0.629,0.15,0.797,0.342c0.307,0.34,0.301,0.922,0.301,1.713C360.732,523.398,360.738,523.982,360.431,524.322z
							 M359.946,521.305c-0.063-0.098-0.173-0.168-0.329-0.168h-0.382v2.943h0.382c0.156,0,0.266-0.07,0.329-0.168
							c0.121-0.189,0.139-0.594,0.139-1.309C360.084,521.887,360.067,521.496,359.946,521.305z"/>
						<path fill="#FF0000" d="M362.471,524.662v-4.107h0.648v4.107H362.471z"/>
						<path fill="#FF0000" d="M367.083,524.662V522.1l-0.561,1.686h-0.359l-0.547-1.656v2.533h-0.647v-4.107h0.583l0.797,2.158
							l0.792-2.158h0.588v4.107H367.083z"/>
						<path fill="#FF0000" d="M369.581,524.662v-4.107h1.729v0.582h-1.081v1.168h0.93v0.58h-0.93v1.195h1.081v0.582H369.581z"/>
						<path fill="#FF0000" d="M374.645,524.662l-0.972-2.439v2.439h-0.648v-4.107h0.578l0.966,2.439v-2.439h0.647v4.107H374.645z"/>
						<path fill="#FF0000" d="M378.79,524.432c-0.17,0.162-0.44,0.273-0.805,0.273c-0.359,0-0.624-0.102-0.798-0.273
							c-0.196-0.197-0.266-0.449-0.266-0.883h0.647c0,0.219,0.024,0.359,0.115,0.461c0.059,0.064,0.156,0.109,0.301,0.109
							c0.15,0,0.248-0.039,0.313-0.115c0.086-0.096,0.109-0.236,0.109-0.455c0-0.438-0.067-0.543-0.388-0.676l-0.491-0.201
							c-0.415-0.174-0.572-0.398-0.572-1.031c0-0.371,0.109-0.672,0.336-0.873c0.178-0.156,0.41-0.248,0.705-0.248
							c0.328,0,0.571,0.086,0.739,0.248c0.213,0.207,0.29,0.502,0.29,0.896h-0.648c0-0.184-0.012-0.33-0.098-0.439
							c-0.059-0.076-0.152-0.121-0.288-0.121c-0.135,0-0.215,0.045-0.279,0.115c-0.074,0.086-0.109,0.225-0.109,0.404
							c0,0.332,0.053,0.438,0.342,0.553l0.485,0.197c0.489,0.195,0.625,0.463,0.625,1.152
							C379.055,523.947,378.997,524.229,378.79,524.432z"/>
						<path fill="#FF0000" d="M380.776,524.662v-4.107h0.647v4.107H380.776z"/>
						<path fill="#FF0000" d="M385.058,524.361c-0.173,0.197-0.403,0.348-0.795,0.348c-0.395,0-0.626-0.15-0.799-0.348
							c-0.306-0.346-0.3-0.945-0.3-1.752c0-0.809-0.006-1.408,0.3-1.756c0.173-0.195,0.404-0.344,0.799-0.344
							c0.392,0,0.622,0.148,0.795,0.344c0.308,0.348,0.302,0.947,0.302,1.756C385.36,523.416,385.366,524.016,385.058,524.361z
							 M384.573,521.246c-0.056-0.09-0.153-0.154-0.31-0.154c-0.157,0-0.25,0.064-0.308,0.154c-0.121,0.197-0.144,0.613-0.144,1.363
							c0,0.748,0.022,1.164,0.144,1.363c0.058,0.09,0.15,0.154,0.308,0.154c0.156,0,0.254-0.064,0.31-0.154
							c0.122-0.199,0.14-0.615,0.14-1.363C384.712,521.859,384.695,521.443,384.573,521.246z"/>
						<path fill="#FF0000" d="M388.72,524.662l-0.974-2.439v2.439h-0.648v-4.107h0.579l0.965,2.439v-2.439h0.647v4.107H388.72z"/>
					</g>
					<polygon fill="#FF0000" points="391.877,520.998 391.877,520.018 392.844,520.006 392.842,519.359 391.877,519.359 
						391.877,518.395 391.206,518.395 391.209,519.359 390.239,519.359 390.239,520.029 391.215,520.021 391.226,520.998 					"/>
				</g>
			</g>
		</g>
		<g>
			<g>
				<rect x="454.72" y="493.932" fill="#FF0000" width="4.194" height="1.449"/>
				<rect x="464.589" y="493.932" fill="#FF0000" width="4.195" height="1.449"/>
				<g>
					<g>
						<polygon id="SVGID_13_" fill="#FF0000" points="480.657,513.256 482.714,513.256 484.402,511.9 484.402,508.201 
							483.168,507.236 480.657,507.236 						"/>
					</g>
				</g>
				<polygon fill="#FF0000" points="480.574,513.748 482.198,524.658 484.729,524.658 482.591,513.748 				"/>
				<polygon fill="#FF0000" points="478.082,507.264 477.938,524.662 480.327,524.662 480.185,507.264 				"/>
				<polygon fill="#FF0000" points="440.005,493.949 439.911,505.613 441.511,505.613 441.416,493.949 				"/>
				<polygon fill="#FF0000" points="439.985,507.279 439.842,524.682 442.23,524.682 442.088,507.279 				"/>
				<polygon fill="#FF0000" points="476.017,493.949 474.607,493.949 474.511,505.613 476.113,505.613 				"/>
				<polygon fill="#FF0000" points="480.917,493.949 479.506,493.949 479.409,505.613 481.01,505.613 				"/>
				<polygon fill="#FF0000" points="483.615,493.949 482.11,493.949 482.015,505.613 483.711,505.613 				"/>
				<polygon fill="#FF0000" points="457.402,495.666 455.994,495.666 455.951,505.613 457.553,505.613 				"/>
				<g>
					<g>
						<polygon id="SVGID_12_" fill="#FF0000" points="454.287,494.693 453.275,493.932 450.515,493.932 449.536,494.693 
							449.474,504.967 450.47,505.613 453.335,505.613 454.333,504.967 						"/>
					</g>
				</g>
				<g>
					<g>
						<polygon id="SVGID_11_" fill="#FF0000" points="464.255,494.693 463.245,493.932 460.484,493.932 459.508,494.693 
							459.444,504.967 460.44,505.613 463.305,505.613 464.302,504.967 						"/>
					</g>
				</g>
				<polygon fill="#FF0000" points="488.79,495.773 490.199,495.773 490.228,496.813 491.765,496.813 491.765,494.578 
					490.921,493.932 489.879,493.932 489.199,493.932 488.159,493.932 487.313,494.578 487.313,499.227 488.76,499.227 				"/>
				<polygon fill="#FF0000" points="467.272,495.666 465.861,495.666 465.82,505.613 467.419,505.613 				"/>
				<polygon fill="#FF0000" points="464.845,509.824 464.784,524.662 467.173,524.662 466.948,509.824 				"/>
				<rect x="462.947" y="507.236" fill="#FF0000" width="6.256" height="2.162"/>
				<polygon fill="#FF0000" points="471.219,499.227 471.899,499.227 472.939,499.227 473.785,498.578 473.785,493.932 
					472.231,493.932 472.284,497.42 470.683,497.42 470.697,493.932 469.333,493.932 469.333,498.578 470.178,499.227 				"/>
				<rect x="442.562" y="507.287" fill="#FF0000" width="3.728" height="2.16"/>
				<rect x="442.562" y="511.781" fill="#FF0000" width="3.728" height="2.16"/>
				<polygon fill="#FF0000" points="486.555,505.613 486.489,494.791 483.944,494.791 483.944,496.238 484.943,496.238 
					484.859,505.613 				"/>
				<polygon fill="#FF0000" points="472.349,499.514 470.671,499.514 470.644,505.613 472.447,505.613 				"/>
				<polygon fill="#FF0000" points="489.476,507.236 489.554,512.441 487.165,512.441 487.187,507.236 485.15,507.236 
					485.15,514.172 486.411,515.137 487.965,515.137 488.978,515.137 490.531,515.137 491.792,514.172 491.792,507.236 				"/>
				<polygon fill="#FF0000" points="487.146,515.563 487.106,524.662 489.796,524.662 489.651,515.563 				"/>
				<polygon fill="#FF0000" points="489.199,505.613 489.879,505.613 490.921,505.613 491.765,504.967 491.765,499.549 
					489.576,499.549 489.576,500.961 490.228,500.961 490.293,503.736 488.693,503.736 488.736,499.549 487.313,499.549 
					487.313,504.967 488.159,505.613 				"/>
				<polygon fill="#FF0000" points="459.393,507.236 458.38,507.236 456.827,507.236 455.566,508.201 455.566,515.137 
					457.726,515.137 457.767,509.984 459.87,509.984 459.912,511.531 462.208,511.531 462.208,508.201 460.946,507.236 				"/>
				<polygon fill="#FF0000" points="459.87,521.916 457.767,521.916 457.726,515.652 455.566,515.652 455.566,523.697 
					456.827,524.662 458.38,524.662 459.393,524.662 460.946,524.662 462.208,523.697 462.208,520.367 459.912,520.367 				"/>
				<polygon fill="#FF0000" points="453.001,507.287 451.449,507.287 450.434,507.287 448.882,507.287 447.621,508.252 
					447.333,524.525 449.569,524.525 449.608,509.67 452.112,509.67 452.251,524.525 454.572,524.525 454.262,508.252 				"/>
				<polygon fill="#FF0000" points="449.889,513.801 449.888,515.859 451.734,515.859 451.728,513.801 				"/>
				<g>
					<g>
						<polygon id="SVGID_10_" fill="#FF0000" points="444.245,497.057 444.245,494.578 443.417,493.932 441.733,493.932 
							441.733,497.967 443.113,497.967 						"/>
					</g>
				</g>
				<g>
					<g>
						<polygon id="SVGID_9_" fill="#FF0000" points="444.744,493.949 444.648,505.613 446.25,505.613 446.154,493.949 						"/>
					</g>
				</g>
				<g>
					<g>
						<polygon id="SVGID_8_" fill="#FF0000" points="447.767,498.297 446.416,498.297 447.503,505.611 449.202,505.611 						"/>
					</g>
				</g>
				<g>
					<g>
						<polygon id="SVGID_7_" fill="#FF0000" points="476.886,508.375 475.376,507.236 471.247,507.236 469.785,508.375 
							469.691,523.74 471.182,524.709 475.466,524.709 476.958,523.74 						"/>
					</g>
				</g>
				<g>
					<g>
						<polygon id="SVGID_6_" fill="#FF0000" points="448.981,497.057 448.981,494.578 448.155,493.932 446.47,493.932 
							446.47,497.967 447.851,497.967 						"/>
					</g>
				</g>
				<g>
					<g>
						<polygon id="SVGID_5_" fill="#FF0000" points="478.843,497.057 478.843,494.578 478.018,493.932 476.332,493.932 
							476.332,497.967 477.713,497.967 						"/>
					</g>
				</g>
			</g>
			<g>
				<rect x="406.724" y="509.969" fill="#FF0000" width="12.876" height="1.914"/>
				<rect x="406.724" y="522.117" fill="#FF0000" width="12.876" height="1.916"/>
				<g>
					<g>
						<polygon id="SVGID_4_" fill="#FF0000" points="412.123,513.725 411.961,521.607 414.524,521.607 414.323,513.725 						"/>
					</g>
				</g>
				<polygon fill="#FF0000" points="432.425,496.197 430.892,496.117 430.509,501.135 432.648,501.135 				"/>
				<polygon fill="#FF0000" points="435.575,494.043 433.596,494.043 433.496,502.504 435.776,502.504 				"/>
				<polygon fill="#FF0000" points="430.329,506.795 430.329,505.283 435.427,505.283 435.427,503.369 430.364,503.369 
					428.263,502.408 428.263,503.355 421.972,503.369 421.972,505.283 428.295,505.283 428.295,506.795 421.657,506.795 
					421.657,508.709 435.755,508.709 435.755,506.795 				"/>
				<g>
					<polygon fill="#FF0000" points="426.189,511.912 426.189,515.732 428.047,515.732 428.047,511.9 					"/>
					<polygon fill="#FF0000" points="425.908,512.438 424.493,512.438 424.615,514.189 425.908,514.189 					"/>
					<polygon fill="#FF0000" points="428.369,514.189 429.66,514.189 429.762,512.438 428.349,512.438 					"/>
					<polygon fill="#FF0000" points="432.144,512.488 430.286,511.973 430.286,515.701 432.144,515.701 					"/>
					<polygon fill="#FF0000" points="435.74,512.482 432.014,512.482 432.034,514.236 435.74,514.236 					"/>
				</g>
				<g>
					<polygon fill="#FF0000" points="435.241,514.836 433.521,514.814 433.293,519.377 434.817,519.377 					"/>
					<polygon fill="#FF0000" points="432.438,516.063 430.654,516.063 431.201,519.393 432.828,519.393 					"/>
				</g>
				<rect x="426.594" y="522.188" fill="#FF0000" width="1.05" height="1.863"/>
				<polygon fill="#FF0000" points="423.939,511.35 435.776,511.35 435.795,509.385 421.669,509.385 421.033,524.051 
					423.396,524.051 				"/>
				<polygon fill="#FF0000" points="432.859,519.734 431.255,519.734 430.195,524.051 432.207,524.051 				"/>
				<polygon fill="#FF0000" points="434.837,519.734 433.28,519.734 433.649,524.051 435.762,524.051 				"/>
				<rect x="421.033" y="524.051" fill="#FF0000" width="2.363" height="0.006"/>
				<g>
					<polygon fill="#FF0000" points="408.53,495.996 420.336,495.996 420.307,494.031 406.26,494.031 405.627,508.682 
						407.988,508.682 					"/>
					<polygon fill="#FF0000" points="411.83,503.512 409.983,503.512 409.086,508.682 411.71,508.682 					"/>
					<polygon fill="#FF0000" points="418.378,503.543 416.501,503.543 416.9,508.682 419.524,508.682 					"/>
				</g>
				<circle fill="#FF0000" cx="425.459" cy="496.686" r="0.488"/>
				<path fill="#FF0000" d="M425.103,495.531c-0.65,0.188-1.023,0.871-0.833,1.52c0.19,0.65,0.873,1.021,1.523,0.832
					s1.023-0.871,0.833-1.52C426.437,495.713,425.753,495.342,425.103,495.531z M426.344,496.951l-0.208-0.016
					c-0.036,0.098-0.093,0.186-0.165,0.258l0.103,0.184l-0.105,0.08l-0.15-0.146c-0.087,0.051-0.187,0.084-0.292,0.092l-0.039,0.211
					l-0.134-0.008l-0.022-0.211c-0.107-0.02-0.209-0.063-0.293-0.125l-0.169,0.133l-0.097-0.09l0.125-0.176
					c-0.062-0.078-0.109-0.17-0.134-0.271l-0.217-0.006l-0.015-0.131l0.211-0.055c0-0.006,0-0.012,0-0.016
					c0.004-0.1,0.028-0.193,0.068-0.277l-0.164-0.145l0.074-0.109l0.198,0.092c0.065-0.076,0.148-0.139,0.238-0.182l-0.033-0.215
					l0.127-0.039l0.093,0.193c0.048-0.006,0.098-0.01,0.148-0.008c0.053,0.002,0.104,0.01,0.153,0.023l0.112-0.184l0.122,0.051
					l-0.054,0.205c0.089,0.053,0.166,0.123,0.225,0.207l0.201-0.07l0.061,0.119l-0.171,0.121c0.029,0.086,0.046,0.18,0.042,0.275
					c0,0.01-0.001,0.018-0.001,0.027l0.196,0.074L426.344,496.951z"/>
				<g>
					<g>
						<path id="SVGID_3_" fill="#FF0000" d="M429.823,494.023h-8.779v1.914h1.936l-0.032,1.268h-1.904v1.914h1.797l-0.146,3.164
							h1.977l0.132-3.164h1.387v3.084h1.979l-0.114-3.084h1.769v-1.914h-1.838l-0.045-1.268h1.883V494.023L429.823,494.023z
							 M427.185,497.139l-0.401-0.025c-0.038,0.119-0.09,0.232-0.157,0.338l0.283,0.287l-0.232,0.266l-0.323-0.238
							c-0.095,0.082-0.2,0.15-0.316,0.201l0.083,0.395l-0.34,0.102l-0.143-0.377c-0.13,0.018-0.258,0.016-0.383-0.002l-0.145,0.375
							l-0.34-0.102l0.085-0.391c-0.114-0.051-0.22-0.121-0.317-0.203l-0.321,0.234l-0.231-0.27l0.28-0.279
							c-0.066-0.104-0.121-0.219-0.157-0.346l-0.395,0.023l-0.048-0.35l0.385-0.084c0.001-0.129,0.021-0.254,0.055-0.375
							l-0.344-0.193l0.15-0.32l0.369,0.137c0.069-0.105,0.154-0.203,0.25-0.287l-0.186-0.346l0.298-0.191l0.238,0.314
							c0.056-0.023,0.113-0.045,0.172-0.063c0.064-0.018,0.13-0.031,0.192-0.043l0.032-0.393h0.354l0.029,0.396
							c0.127,0.02,0.248,0.057,0.363,0.109l0.241-0.318l0.297,0.193l-0.19,0.35c0.096,0.084,0.178,0.18,0.247,0.287l0.375-0.139
							l0.147,0.324l-0.353,0.193c0.037,0.123,0.051,0.246,0.053,0.371l0.393,0.086L427.185,497.139z"/>
					</g>
				</g>
				<polygon fill="#FF0000" points="415.273,502.852 412.913,502.852 412.757,508.691 415.371,508.691 				"/>
				<g>
					<g>
						<path id="SVGID_2_" fill="#FF0000" d="M419.333,498.689l-1.455-1.275l-0.011,0.16l-0.42,0.42v0.561l-0.327,0.131l-0.365-0.363
							l0.001-0.004l-0.188-0.186l0.131-0.328h0.56l0.419-0.42h-2.036l-2.239-1.086l-0.515,0.965h-2.18l-1.489,1.135l-0.235,3.955
							h10.505L419.333,498.689z M416.715,499.783l-0.06,0.059l-0.483,0.484l-0.014,0.014l0,0c0,0-0.082,0.098-0.25,0.199
							c0.148,0.68-0.381,1.066-0.477,1.111c-0.097,0.045-0.275,0.096-0.155-0.1c0.155-0.258,0.087-0.707,0.07-0.807
							c-0.016,0.004-0.029,0.008-0.044,0.01c-0.219,0.055-0.46-0.002-0.632-0.174c-0.168-0.168-0.226-0.402-0.178-0.619
							c0.003-0.02,0.007-0.039,0.012-0.057c-0.103-0.02-0.548-0.084-0.806,0.07c-0.197,0.119-0.147-0.061-0.101-0.154
							c0.045-0.098,0.433-0.625,1.111-0.479c0.021-0.031,0.04-0.061,0.058-0.086c0.027-0.045,0.059-0.086,0.096-0.123l0.058-0.059
							l0.483-0.482l0.061-0.061c0.255-0.254,0.669-0.254,0.927,0l0.326,0.326C416.97,499.115,416.97,499.529,416.715,499.783z"/>
					</g>
				</g>
				<polygon fill="#FF0000" points="412.167,513.387 414.278,513.387 413.193,512.318 				"/>
				<g>
					<g>
						<g>
							<path id="SVGID_1_" fill="#FF0000" d="M428.753,516.184h-3.352l-0.988,0.768v7.1h2.181v-1.863h1.048v1.863h2.018v-6.879
								L428.753,516.184z M428.734,520.311l-1.669,0.941l-1.651-0.896v-2.008l0.437-0.195v-0.219c0-0.137,0.118-0.246,0.263-0.246
								h0.279c0.097,0,0.178,0.047,0.224,0.117l0.105-0.049v-0.25c0-0.137,0.119-0.246,0.265-0.246h0.277
								c0.148,0,0.265,0.109,0.265,0.246v0.285l0.101,0.047c0.04-0.088,0.133-0.15,0.244-0.15h0.278
								c0.145,0,0.264,0.109,0.264,0.246v0.281l0.319,0.154V520.311z"/>
						</g>
					</g>
					<g>
						<ellipse fill="#FF0000" cx="427.118" cy="517.454" rx="0.258" ry="0.087"/>
						<ellipse fill="#FF0000" cx="428.004" cy="517.883" rx="0.258" ry="0.088"/>
						<ellipse fill="#FF0000" cx="427.118" cy="518.129" rx="0.258" ry="0.088"/>
						<ellipse fill="#FF0000" cx="426.246" cy="517.883" rx="0.258" ry="0.088"/>
						<path fill="#FF0000" d="M427.049,519.141l-1.298-0.697c-0.05-0.027-0.114-0.01-0.141,0.043s-0.008,0.115,0.043,0.143
							l1.302,0.695v1.59c0,0.057,0.045,0.102,0.104,0.102c0.058,0,0.105-0.045,0.105-0.102v-1.6l1.318-0.652
							c0.051-0.025,0.072-0.088,0.046-0.141c-0.026-0.051-0.088-0.072-0.139-0.047L427.049,519.141z"/>
					</g>
				</g>
			</g>
		</g>
	</g>
	<g>
		<g>
			<g>
				<path fill="#FF0000" d="M287.654,257.838l-0.254-0.885c-0.029-0.096-0.117-0.163-0.215-0.163c-0.02,0-0.041,0.003-0.063,0.009
					l-0.326,0.094c-0.043,0.009-0.064-0.021-0.064-0.07l0,0c0.006-0.422-0.107-0.803-0.33-1.11
					c-0.281-0.391-0.713-0.622-1.209-0.651c-0.039-0.002-0.076-0.004-0.113-0.004c-0.787,0-1.355,0.612-1.512,1.218
					c-0.119,0.468-0.018,1.153,0.477,1.633c0.193,0.188,0.432,0.329,0.709,0.422l0.053,0.018c0.016,0.007,0.027,0.029,0.016,0.063
					c-0.482,0.863-1.096,0.865-1.59,0.865c-0.287,0-0.555-0.138-0.795-0.407c-0.033-0.045-0.033-0.101-0.006-0.149
					c0.732-1.207,1.104-2.969,1.104-5.241c0-2.6-1.295-2.88-1.852-2.88s-1.857,0.294-1.857,3.012c0,0.502,0.041,3.074,0.848,4.958
					c0.023,0.06,0.025,0.12-0.014,0.157c-0.461,0.375-0.904,0.43-1.133,0.43c-0.473,0-0.703-0.251-0.703-0.771v-3.637
					c0-0.123-0.1-0.224-0.223-0.224h-0.924c-0.123,0-0.223,0.101-0.223,0.224v0.238c-0.004,0.066-0.064,0.062-0.104,0.048
					l-0.027-0.011c-0.404-0.162-0.813-0.197-1.09-0.197c-0.748,0-2.494,0.265-2.578,2.724c-0.004,0.016-0.006,0.031-0.006,0.047
					v0.098c0,0.004,0,0.032,0,0.036v0.327c0,0.733-0.498,1.075-1.566,1.075c-0.373,0-0.765-0.288-1.099-0.571
					c-0.025-0.028-0.046-0.062-0.015-0.149c0.006-0.015,0.01-0.03,0.011-0.044c0.023-0.067,0.045-0.133,0.067-0.198
					c0.329-0.945-0.104-1.829-0.525-2.683c-0.294-0.597-0.598-1.213-0.598-1.796c0-1.277,0.889-1.731,1.719-1.731
					c0.826,0,1.158,0.565,1.262,0.81l0.182,0.423c0.035,0.083,0.117,0.136,0.205,0.136c0.031,0,0.061-0.007,0.088-0.018l0.85-0.362
					c0.055-0.024,0.098-0.069,0.119-0.123c0.023-0.054,0.021-0.117-0.002-0.171l-0.182-0.423c-0.166-0.385-0.834-1.64-2.521-1.64
					c-1.818,0-3.089,1.274-3.089,3.1c0,0.9,0.393,1.696,0.739,2.399c0.273,0.558,0.533,1.086,0.492,1.479
					c-0.006,0.016-0.011,0.016-0.014,0.016c-0.006,0-0.014-0.002-0.021-0.005c-0.3-0.169-0.586-0.25-0.875-0.25
					c-0.975,0-1.737,0.721-1.737,1.641c0,0.918,0.775,1.666,1.729,1.666c0.588,0,1.053-0.241,1.421-0.735
					c0.032-0.041,0.06-0.044,0.076-0.044c0.027,0,0.062,0.014,0.099,0.04c0.559,0.412,1.073,0.604,1.62,0.604
					c0.787,0,1.463-0.178,1.961-0.513v0.001l0.08-0.057c0.059-0.042,0.1-0.063,0.129-0.063c0.014,0,0.033,0.004,0.064,0.036
					l0.012,0.01c0.438,0.478,1.078,0.721,1.904,0.721c0.729,0,1.313-0.189,1.742-0.562l0.004-0.003
					c0.041-0.033,0.076-0.05,0.109-0.05c0.027,0,0.055,0.012,0.084,0.037c0.363,0.3,0.846,0.465,1.354,0.465
					c0.35,0,1.025-0.07,1.723-0.533v0.004l0.082-0.06c0.047-0.035,0.088-0.053,0.125-0.053c0.025,0,0.053,0.012,0.08,0.034
					c0.479,0.482,1.049,0.727,1.695,0.727c1.018,0,2.281-0.25,3.072-2.174l0,0c0.016-0.045,0.059-0.066,0.104-0.077
					c0.211-0.037,0.428-0.088,0.65-0.151l0.443-0.127c0.057-0.016,0.104-0.055,0.133-0.107
					C287.664,257.956,287.669,257.894,287.654,257.838z M269.25,259.003c-0.118,0.186-0.232,0.265-0.382,0.265
					c-0.225,0-0.359-0.15-0.359-0.297c0-0.137,0.112-0.275,0.366-0.275c0.097,0,0.148,0.023,0.36,0.176
					C269.284,258.908,269.271,258.963,269.25,259.003z M277.148,258.978c-0.176,0.203-0.449,0.291-0.914,0.291
					c-0.791,0-1.195-0.226-1.215-1.463v-0.13c0.02-1.368,0.637-1.481,1.215-1.481c0.393,0,0.66,0.08,0.84,0.247
					c0.02,0.021,0.027,0.046,0.02,0.079c-0.111,0.649-0.195,1.567,0.037,2.325l0,0l0.029,0.087
					C277.164,258.945,277.164,258.957,277.148,258.978z M281.683,257.101c-0.021,0.039-0.055,0.032-0.068-0.004
					c-0.387-1.454-0.418-3.021-0.418-3.485c0-1.133,0.283-1.644,0.486-1.644c0.24,0,0.482,0.52,0.482,1.513
					C282.166,254.956,282.001,256.171,281.683,257.101z M285.337,257.013c-0.006,0.022-0.021,0.042-0.07,0.042
					c-0.012,0-0.02-0.001-0.031-0.003c-0.127-0.037-0.197-0.089-0.236-0.126c-0.137-0.131-0.105-0.311-0.104-0.313
					c0.012-0.048,0.074-0.186,0.201-0.187l0.012,0.001c0.086,0.005,0.145,0.032,0.184,0.085
					C285.365,256.614,285.382,256.8,285.337,257.013z"/>
			</g>
			<g>
				<g>
					<path fill="#FF0000" d="M269.03,263.559c-0.072,0.075-0.179,0.108-0.338,0.108h-0.428v-1.716h0.431
						c0.158,0,0.263,0.034,0.335,0.106c0.077,0.08,0.105,0.193,0.105,0.362c0,0.115-0.011,0.211-0.089,0.289
						c-0.025,0.027-0.055,0.045-0.089,0.06c0.036,0.014,0.066,0.036,0.092,0.063c0.085,0.091,0.092,0.221,0.092,0.327
						C269.142,263.354,269.112,263.475,269.03,263.559z M268.664,262.195h-0.129v0.466h0.129c0.143,0,0.202-0.07,0.202-0.234
						C268.866,262.253,268.809,262.195,268.664,262.195z M268.666,262.89h-0.131v0.535h0.131c0.146,0,0.204-0.067,0.204-0.269
						C268.87,262.966,268.811,262.89,268.666,262.89z"/>
					<path fill="#FF0000" d="M270.346,262.995v0.672h-0.27v-0.672l-0.333-1.043h0.3l0.168,0.68l0.171-0.68h0.297L270.346,262.995z"
						/>
					<path fill="#FF0000" d="M272.996,263.525c-0.07,0.08-0.17,0.142-0.334,0.142h-0.438v-1.716h0.438
						c0.164,0,0.264,0.063,0.334,0.143c0.127,0.142,0.125,0.386,0.125,0.716C273.121,263.14,273.123,263.384,272.996,263.525z
						 M272.792,262.265c-0.027-0.041-0.072-0.07-0.137-0.07h-0.16v1.23h0.16c0.064,0,0.109-0.03,0.137-0.07
						c0.051-0.08,0.059-0.248,0.059-0.547C272.851,262.508,272.843,262.345,272.792,262.265z"/>
					<path fill="#FF0000" d="M273.847,263.667v-1.716h0.271v1.716H273.847z"/>
					<path fill="#FF0000" d="M275.775,263.667v-1.07l-0.234,0.704h-0.15l-0.229-0.692v1.058h-0.271v-1.716h0.244l0.334,0.902
						l0.33-0.902h0.244v1.716H275.775z"/>
					<path fill="#FF0000" d="M276.818,263.667v-1.716h0.721v0.243h-0.451v0.488h0.389v0.242h-0.389v0.5h0.451v0.243H276.818z"/>
					<path fill="#FF0000" d="M278.933,263.667l-0.406-1.019v1.019h-0.27v-1.716h0.24l0.404,1.019v-1.019h0.27v1.716H278.933z"/>
					<path fill="#FF0000" d="M280.664,263.571c-0.07,0.068-0.184,0.114-0.336,0.114c-0.15,0-0.26-0.042-0.332-0.114
						c-0.082-0.083-0.111-0.188-0.111-0.369h0.27c0,0.091,0.012,0.15,0.049,0.192c0.023,0.027,0.064,0.045,0.125,0.045
						c0.063,0,0.104-0.016,0.131-0.048c0.037-0.04,0.045-0.099,0.045-0.19c0-0.183-0.027-0.227-0.162-0.283l-0.203-0.083
						c-0.174-0.073-0.24-0.167-0.24-0.431c0-0.155,0.045-0.281,0.141-0.364c0.074-0.066,0.17-0.104,0.293-0.104
						c0.139,0,0.24,0.036,0.311,0.104c0.088,0.086,0.121,0.209,0.121,0.374h-0.271c0-0.077-0.006-0.138-0.041-0.184
						c-0.023-0.031-0.063-0.05-0.119-0.05s-0.09,0.019-0.117,0.048c-0.031,0.036-0.045,0.093-0.045,0.168
						c0,0.139,0.021,0.183,0.143,0.231l0.203,0.082c0.203,0.082,0.26,0.193,0.26,0.482
						C280.775,263.369,280.751,263.487,280.664,263.571z"/>
					<path fill="#FF0000" d="M281.494,263.667v-1.716h0.271v1.716H281.494z"/>
					<path fill="#FF0000" d="M283.283,263.542c-0.072,0.083-0.168,0.145-0.332,0.145s-0.262-0.063-0.334-0.145
						c-0.127-0.145-0.125-0.395-0.125-0.732c0-0.338-0.002-0.588,0.125-0.733c0.072-0.082,0.17-0.144,0.334-0.144
						s0.26,0.062,0.332,0.144c0.129,0.145,0.125,0.396,0.125,0.733C283.408,263.147,283.412,263.397,283.283,263.542z
						 M283.08,262.24c-0.021-0.037-0.063-0.064-0.129-0.064c-0.064,0-0.105,0.027-0.129,0.064c-0.051,0.083-0.059,0.256-0.059,0.57
						c0,0.313,0.008,0.486,0.059,0.57c0.023,0.037,0.064,0.064,0.129,0.064c0.066,0,0.107-0.027,0.129-0.064
						c0.051-0.083,0.059-0.257,0.059-0.57C283.138,262.497,283.13,262.323,283.08,262.24z"/>
					<path fill="#FF0000" d="M284.812,263.667l-0.406-1.019v1.019h-0.271v-1.716h0.244l0.402,1.019v-1.019h0.27v1.716H284.812z"/>
				</g>
				<polygon fill="#FF0000" points="286.132,262.137 286.132,261.728 286.535,261.723 286.535,261.453 286.132,261.453 
					286.132,261.049 285.851,261.049 285.853,261.453 285.447,261.453 285.447,261.732 285.855,261.729 285.859,262.137 				"/>
			</g>
		</g>
	</g>
</g>
<g id="ruler">
	
		<rect x="107.441" y="230.467" fill="none" stroke="#231815" stroke-width="0.1" stroke-miterlimit="10" width="340.158" height="35.5"/>
	
		<line fill="none" stroke="#FF0000" stroke-width="0.1" stroke-miterlimit="10" x1="164.038" y1="230.467" x2="164.038" y2="244.641"/>
	
		<line fill="none" stroke="#FF0000" stroke-width="0.1" stroke-miterlimit="10" x1="135.441" y1="230.467" x2="135.441" y2="244.641"/>
	
		<line fill="none" stroke="#FF0000" stroke-width="0.1" stroke-miterlimit="10" x1="192.622" y1="230.467" x2="192.622" y2="244.641"/>
	
		<line fill="none" stroke="#FF0000" stroke-width="0.1" stroke-miterlimit="10" x1="220.64" y1="230.467" x2="220.64" y2="244.641"/>
	
		<line fill="none" stroke="#FF0000" stroke-width="0.1" stroke-miterlimit="10" x1="248.79" y1="230.467" x2="248.79" y2="244.641"/>
	
		<line fill="none" stroke="#FF0000" stroke-width="0.1" stroke-miterlimit="10" x1="277.374" y1="230.467" x2="277.374" y2="244.641"/>
	
		<line fill="none" stroke="#FF0000" stroke-width="0.1" stroke-miterlimit="10" x1="305.958" y1="230.467" x2="305.958" y2="244.641"/>
	
		<line fill="none" stroke="#FF0000" stroke-width="0.1" stroke-miterlimit="10" x1="334.542" y1="230.467" x2="334.542" y2="244.641"/>
	
		<line fill="none" stroke="#FF0000" stroke-width="0.1" stroke-miterlimit="10" x1="362.307" y1="230.468" x2="362.307" y2="244.641"/>
	
		<line fill="none" stroke="#FF0000" stroke-width="0.1" stroke-miterlimit="10" x1="390.71" y1="230.467" x2="390.71" y2="244.641"/>
	
		<line fill="none" stroke="#FF0000" stroke-width="0.1" stroke-miterlimit="10" x1="419.253" y1="230.217" x2="419.253" y2="244.391"/>
	<g>
		<path fill="#FF0000" d="M307.167,254.967h-0.879v-5.601c-0.212,0.202-0.49,0.403-0.833,0.605s-0.651,0.353-0.925,0.454v-0.85
			c0.491-0.23,0.921-0.512,1.289-0.84c0.367-0.328,0.628-0.648,0.781-0.957h0.566V254.967z"/>
	</g>
	<g>
		<path fill="#FF0000" d="M250.667,254.967h-0.879v-5.601c-0.211,0.202-0.489,0.403-0.833,0.605s-0.652,0.353-0.925,0.454v-0.85
			c0.492-0.23,0.921-0.512,1.289-0.84s0.628-0.648,0.781-0.957h0.566V254.967z"/>
	</g>
	<g>
		<path fill="#FF0000" d="M337.476,254.123v0.845h-4.732c-0.006-0.211,0.028-0.415,0.104-0.61c0.12-0.322,0.313-0.64,0.578-0.952
			s0.648-0.674,1.15-1.084c0.777-0.639,1.303-1.144,1.576-1.516c0.273-0.373,0.41-0.726,0.41-1.058c0-0.349-0.124-0.642-0.373-0.882
			c-0.249-0.238-0.574-0.358-0.975-0.358c-0.423,0-0.762,0.127-1.016,0.381s-0.382,0.605-0.385,1.055l-0.904-0.093
			c0.063-0.674,0.295-1.188,0.699-1.541c0.403-0.353,0.945-0.529,1.625-0.529c0.688,0,1.23,0.19,1.631,0.571
			s0.602,0.853,0.602,1.416c0,0.286-0.059,0.567-0.176,0.845s-0.313,0.568-0.584,0.874s-0.724,0.726-1.355,1.26
			c-0.527,0.442-0.865,0.743-1.016,0.901c-0.149,0.157-0.273,0.316-0.371,0.476H337.476z"/>
	</g>
	<g>
		<path fill="#FF0000" d="M223.976,254.123v0.845h-4.731c-0.006-0.211,0.028-0.415,0.103-0.61c0.121-0.322,0.313-0.64,0.579-0.952
			s0.648-0.674,1.15-1.084c0.778-0.639,1.304-1.144,1.577-1.516c0.273-0.373,0.41-0.726,0.41-1.058c0-0.349-0.125-0.642-0.374-0.882
			c-0.249-0.238-0.574-0.358-0.974-0.358c-0.423,0-0.762,0.127-1.016,0.381s-0.382,0.605-0.386,1.055l-0.903-0.093
			c0.062-0.674,0.294-1.188,0.698-1.541c0.404-0.353,0.946-0.529,1.626-0.529c0.687,0,1.23,0.19,1.631,0.571
			s0.601,0.853,0.601,1.416c0,0.286-0.059,0.567-0.176,0.845s-0.312,0.568-0.583,0.874s-0.724,0.726-1.355,1.26
			c-0.527,0.442-0.866,0.743-1.016,0.901c-0.15,0.157-0.273,0.316-0.371,0.476H223.976z"/>
	</g>
	<g>
		<path fill="#FF0000" d="M361.361,253.078l0.879-0.117c0.102,0.498,0.273,0.856,0.516,1.077c0.242,0.219,0.538,0.329,0.887,0.329
			c0.413,0,0.762-0.144,1.047-0.43s0.428-0.642,0.428-1.064c0-0.403-0.133-0.736-0.396-0.999c-0.264-0.262-0.599-0.393-1.006-0.393
			c-0.166,0-0.372,0.033-0.619,0.098l0.098-0.771c0.059,0.006,0.105,0.01,0.141,0.01c0.375,0,0.712-0.098,1.012-0.293
			c0.299-0.195,0.449-0.496,0.449-0.903c0-0.322-0.109-0.589-0.328-0.801c-0.218-0.212-0.499-0.317-0.844-0.317
			c-0.342,0-0.627,0.107-0.855,0.322c-0.228,0.215-0.374,0.537-0.439,0.967l-0.879-0.156c0.107-0.59,0.352-1.046,0.732-1.369
			c0.381-0.324,0.855-0.486,1.422-0.486c0.391,0,0.75,0.084,1.078,0.252c0.329,0.167,0.58,0.396,0.755,0.686
			s0.261,0.598,0.261,0.923c0,0.31-0.082,0.591-0.248,0.845s-0.412,0.455-0.738,0.605c0.424,0.098,0.752,0.301,0.986,0.607
			c0.234,0.309,0.352,0.693,0.352,1.155c0,0.625-0.228,1.155-0.684,1.589c-0.455,0.436-1.031,0.652-1.729,0.652
			c-0.628,0-1.149-0.188-1.564-0.562S361.419,253.673,361.361,253.078z"/>
	</g>
	<g>
		<path fill="#FF0000" d="M190.861,253.078l0.879-0.117c0.101,0.498,0.272,0.856,0.515,1.077c0.243,0.219,0.538,0.329,0.886,0.329
			c0.414,0,0.763-0.144,1.047-0.43s0.427-0.642,0.427-1.064c0-0.403-0.132-0.736-0.396-0.999c-0.264-0.262-0.599-0.393-1.006-0.393
			c-0.166,0-0.373,0.033-0.62,0.098l0.098-0.771c0.059,0.006,0.106,0.01,0.142,0.01c0.375,0,0.711-0.098,1.011-0.293
			s0.449-0.496,0.449-0.903c0-0.322-0.109-0.589-0.327-0.801s-0.5-0.317-0.845-0.317c-0.342,0-0.626,0.107-0.854,0.322
			s-0.375,0.537-0.439,0.967l-0.879-0.156c0.107-0.59,0.352-1.046,0.732-1.369c0.381-0.324,0.854-0.486,1.421-0.486
			c0.391,0,0.75,0.084,1.079,0.252c0.329,0.167,0.58,0.396,0.754,0.686s0.261,0.598,0.261,0.923c0,0.31-0.083,0.591-0.249,0.845
			s-0.412,0.455-0.737,0.605c0.423,0.098,0.752,0.301,0.986,0.607c0.234,0.309,0.352,0.693,0.352,1.155
			c0,0.625-0.228,1.155-0.684,1.589c-0.456,0.436-1.032,0.652-1.729,0.652c-0.628,0-1.15-0.188-1.565-0.562
			S190.92,253.673,190.861,253.078z"/>
	</g>
	<g>
		<path fill="#FF0000" d="M164.674,254.967v-1.714h-3.105v-0.806l3.267-4.639h0.718v4.639h0.967v0.806h-0.967v1.714H164.674z
			 M164.674,252.448v-3.228l-2.241,3.228H164.674z"/>
	</g>
	<g>
		<path fill="#FF0000" d="M391.173,254.967v-1.714h-3.105v-0.806l3.268-4.639h0.717v4.639h0.967v0.806h-0.967v1.714H391.173z
			 M391.173,252.448v-3.228l-2.24,3.228H391.173z"/>
	</g>
	<g>
		<path fill="#FF0000" d="M416.826,253.092l0.922-0.078c0.068,0.449,0.228,0.787,0.477,1.014c0.249,0.226,0.549,0.339,0.9,0.339
			c0.424,0,0.781-0.159,1.074-0.479s0.439-0.742,0.439-1.27c0-0.501-0.141-0.897-0.422-1.187s-0.65-0.435-1.105-0.435
			c-0.283,0-0.539,0.064-0.768,0.192c-0.228,0.129-0.406,0.296-0.537,0.501l-0.824-0.107l0.693-3.677h3.559v0.84h-2.855
			l-0.387,1.924c0.43-0.299,0.881-0.449,1.354-0.449c0.625,0,1.152,0.217,1.582,0.649s0.645,0.989,0.645,1.67
			c0,0.647-0.189,1.208-0.566,1.68c-0.459,0.579-1.086,0.869-1.881,0.869c-0.65,0-1.182-0.183-1.594-0.547
			S416.884,253.694,416.826,253.092z"/>
	</g>
	<g>
		<path fill="#FF0000" d="M133.357,253.092l0.923-0.078c0.068,0.449,0.227,0.787,0.476,1.014c0.249,0.226,0.549,0.339,0.901,0.339
			c0.423,0,0.781-0.159,1.074-0.479s0.439-0.742,0.439-1.27c0-0.501-0.141-0.897-0.422-1.187s-0.65-0.435-1.106-0.435
			c-0.283,0-0.539,0.064-0.767,0.192c-0.228,0.129-0.407,0.296-0.537,0.501l-0.825-0.107l0.693-3.677h3.56v0.84h-2.856l-0.386,1.924
			c0.43-0.299,0.88-0.449,1.353-0.449c0.625,0,1.152,0.217,1.582,0.649s0.645,0.989,0.645,1.67c0,0.647-0.189,1.208-0.566,1.68
			c-0.459,0.579-1.085,0.869-1.88,0.869c-0.651,0-1.183-0.183-1.594-0.547S133.416,253.694,133.357,253.092z"/>
	</g>
	
		<line fill="none" stroke="#FF0000" stroke-width="0.1" stroke-miterlimit="10" x1="121.608" y1="230.467" x2="121.608" y2="237.554"/>
	
		<line fill="none" stroke="#FF0000" stroke-width="0.1" stroke-miterlimit="10" x1="149.941" y1="230.467" x2="149.941" y2="237.554"/>
	
		<line fill="none" stroke="#FF0000" stroke-width="0.1" stroke-miterlimit="10" x1="178.275" y1="230.467" x2="178.275" y2="237.554"/>
	
		<line fill="none" stroke="#FF0000" stroke-width="0.1" stroke-miterlimit="10" x1="206.608" y1="230.467" x2="206.608" y2="237.554"/>
	
		<line fill="none" stroke="#FF0000" stroke-width="0.1" stroke-miterlimit="10" x1="234.942" y1="230.467" x2="234.942" y2="237.554"/>
	
		<line fill="none" stroke="#FF0000" stroke-width="0.1" stroke-miterlimit="10" x1="263.275" y1="230.467" x2="263.275" y2="237.554"/>
	
		<line fill="none" stroke="#FF0000" stroke-width="0.1" stroke-miterlimit="10" x1="291.734" y1="230.467" x2="291.734" y2="237.554"/>
	
		<line fill="none" stroke="#FF0000" stroke-width="0.1" stroke-miterlimit="10" x1="320.046" y1="230.467" x2="320.046" y2="237.554"/>
	
		<line fill="none" stroke="#FF0000" stroke-width="0.1" stroke-miterlimit="10" x1="348.276" y1="230.467" x2="348.276" y2="237.554"/>
	
		<line fill="none" stroke="#FF0000" stroke-width="0.1" stroke-miterlimit="10" x1="376.609" y1="230.467" x2="376.609" y2="237.554"/>
	
		<line fill="none" stroke="#FF0000" stroke-width="0.1" stroke-miterlimit="10" x1="405.087" y1="230.467" x2="405.087" y2="237.554"/>
	
		<line fill="none" stroke="#FF0000" stroke-width="0.1" stroke-miterlimit="10" x1="433.41" y1="230.467" x2="433.41" y2="237.554"/>
	
		<line fill="none" stroke="#FF0000" stroke-width="0.1" stroke-miterlimit="10" x1="110.316" y1="230.467" x2="110.316" y2="235.405"/>
	
		<line fill="none" stroke="#FF0000" stroke-width="0.1" stroke-miterlimit="10" x1="113.109" y1="230.467" x2="113.109" y2="235.404"/>
	
		<line fill="none" stroke="#FF0000" stroke-width="0.1" stroke-miterlimit="10" x1="115.963" y1="230.467" x2="115.963" y2="235.405"/>
	
		<line fill="none" stroke="#FF0000" stroke-width="0.1" stroke-miterlimit="10" x1="118.776" y1="230.467" x2="118.776" y2="235.405"/>
	
		<line fill="none" stroke="#FF0000" stroke-width="0.1" stroke-miterlimit="10" x1="124.484" y1="230.467" x2="124.484" y2="235.405"/>
	
		<line fill="none" stroke="#FF0000" stroke-width="0.1" stroke-miterlimit="10" x1="127.296" y1="230.467" x2="127.296" y2="235.405"/>
	
		<line fill="none" stroke="#FF0000" stroke-width="0.1" stroke-miterlimit="10" x1="130.13" y1="230.467" x2="130.13" y2="235.405"/>
	
		<line fill="none" stroke="#FF0000" stroke-width="0.1" stroke-miterlimit="10" x1="132.942" y1="230.467" x2="132.942" y2="235.405"/>
	
		<line fill="none" stroke="#FF0000" stroke-width="0.1" stroke-miterlimit="10" x1="138.609" y1="230.467" x2="138.609" y2="235.405"/>
	
		<line fill="none" stroke="#FF0000" stroke-width="0.1" stroke-miterlimit="10" x1="141.484" y1="230.467" x2="141.484" y2="235.405"/>
	
		<line fill="none" stroke="#FF0000" stroke-width="0.1" stroke-miterlimit="10" x1="144.255" y1="230.467" x2="144.255" y2="235.405"/>
	
		<line fill="none" stroke="#FF0000" stroke-width="0.1" stroke-miterlimit="10" x1="147.109" y1="230.467" x2="147.109" y2="235.405"/>
	
		<line fill="none" stroke="#FF0000" stroke-width="0.1" stroke-miterlimit="10" x1="152.816" y1="230.467" x2="152.816" y2="235.405"/>
	
		<line fill="none" stroke="#FF0000" stroke-width="0.1" stroke-miterlimit="10" x1="155.607" y1="230.467" x2="155.607" y2="235.405"/>
	
		<line fill="none" stroke="#FF0000" stroke-width="0.1" stroke-miterlimit="10" x1="158.483" y1="230.467" x2="158.483" y2="235.405"/>
	
		<line fill="none" stroke="#FF0000" stroke-width="0.1" stroke-miterlimit="10" x1="161.316" y1="230.467" x2="161.316" y2="235.405"/>
	
		<line fill="none" stroke="#FF0000" stroke-width="0.1" stroke-miterlimit="10" x1="166.984" y1="230.467" x2="166.984" y2="235.405"/>
	
		<line fill="none" stroke="#FF0000" stroke-width="0.1" stroke-miterlimit="10" x1="169.838" y1="230.467" x2="169.838" y2="235.405"/>
	
		<line fill="none" stroke="#FF0000" stroke-width="0.1" stroke-miterlimit="10" x1="172.692" y1="230.467" x2="172.692" y2="235.405"/>
	
		<line fill="none" stroke="#FF0000" stroke-width="0.1" stroke-miterlimit="10" x1="175.442" y1="230.467" x2="175.442" y2="235.405"/>
	
		<line fill="none" stroke="#FF0000" stroke-width="0.1" stroke-miterlimit="10" x1="181.13" y1="230.467" x2="181.13" y2="235.405"/>
	
		<line fill="none" stroke="#FF0000" stroke-width="0.1" stroke-miterlimit="10" x1="183.985" y1="230.467" x2="183.985" y2="235.405"/>
	
		<line fill="none" stroke="#FF0000" stroke-width="0.1" stroke-miterlimit="10" x1="186.798" y1="230.467" x2="186.798" y2="235.405"/>
	
		<line fill="none" stroke="#FF0000" stroke-width="0.1" stroke-miterlimit="10" x1="189.631" y1="230.467" x2="189.631" y2="235.405"/>
	
		<line fill="none" stroke="#FF0000" stroke-width="0.1" stroke-miterlimit="10" x1="195.298" y1="230.467" x2="195.298" y2="235.405"/>
	
		<line fill="none" stroke="#FF0000" stroke-width="0.1" stroke-miterlimit="10" x1="198.131" y1="230.467" x2="198.131" y2="235.405"/>
	
		<line fill="none" stroke="#FF0000" stroke-width="0.1" stroke-miterlimit="10" x1="201.066" y1="230.467" x2="201.066" y2="235.405"/>
	
		<line fill="none" stroke="#FF0000" stroke-width="0.1" stroke-miterlimit="10" x1="203.816" y1="230.467" x2="203.816" y2="235.405"/>
	
		<line fill="none" stroke="#FF0000" stroke-width="0.1" stroke-miterlimit="10" x1="209.525" y1="230.467" x2="209.525" y2="235.405"/>
	
		<line fill="none" stroke="#FF0000" stroke-width="0.1" stroke-miterlimit="10" x1="212.332" y1="230.467" x2="212.332" y2="235.405"/>
	
		<line fill="none" stroke="#FF0000" stroke-width="0.1" stroke-miterlimit="10" x1="215.16" y1="230.467" x2="215.16" y2="235.405"/>
	
		<line fill="none" stroke="#FF0000" stroke-width="0.1" stroke-miterlimit="10" x1="218.004" y1="230.467" x2="218.004" y2="235.405"/>
	
		<line fill="none" stroke="#FF0000" stroke-width="0.1" stroke-miterlimit="10" x1="223.676" y1="230.467" x2="223.676" y2="235.405"/>
	
		<line fill="none" stroke="#FF0000" stroke-width="0.1" stroke-miterlimit="10" x1="226.52" y1="230.467" x2="226.52" y2="235.405"/>
	
		<line fill="none" stroke="#FF0000" stroke-width="0.1" stroke-miterlimit="10" x1="229.332" y1="230.467" x2="229.332" y2="235.405"/>
	
		<line fill="none" stroke="#FF0000" stroke-width="0.1" stroke-miterlimit="10" x1="232.145" y1="230.467" x2="232.145" y2="235.405"/>
	
		<line fill="none" stroke="#FF0000" stroke-width="0.1" stroke-miterlimit="10" x1="237.816" y1="230.467" x2="237.816" y2="235.405"/>
	
		<line fill="none" stroke="#FF0000" stroke-width="0.1" stroke-miterlimit="10" x1="240.66" y1="230.467" x2="240.66" y2="235.405"/>
	
		<line fill="none" stroke="#FF0000" stroke-width="0.1" stroke-miterlimit="10" x1="243.504" y1="230.467" x2="243.504" y2="235.405"/>
	
		<line fill="none" stroke="#FF0000" stroke-width="0.1" stroke-miterlimit="10" x1="246.332" y1="230.467" x2="246.332" y2="235.405"/>
	
		<line fill="none" stroke="#FF0000" stroke-width="0.1" stroke-miterlimit="10" x1="251.441" y1="230.467" x2="251.441" y2="235.405"/>
	
		<line fill="none" stroke="#FF0000" stroke-width="0.1" stroke-miterlimit="10" x1="254.832" y1="230.467" x2="254.832" y2="235.405"/>
	
		<line fill="none" stroke="#FF0000" stroke-width="0.1" stroke-miterlimit="10" x1="257.676" y1="230.467" x2="257.676" y2="235.405"/>
	
		<line fill="none" stroke="#FF0000" stroke-width="0.1" stroke-miterlimit="10" x1="260.457" y1="230.467" x2="260.457" y2="235.405"/>
	
		<line fill="none" stroke="#FF0000" stroke-width="0.1" stroke-miterlimit="10" x1="266.207" y1="230.467" x2="266.207" y2="235.405"/>
	
		<line fill="none" stroke="#FF0000" stroke-width="0.1" stroke-miterlimit="10" x1="268.957" y1="230.467" x2="268.957" y2="235.405"/>
	
		<line fill="none" stroke="#FF0000" stroke-width="0.1" stroke-miterlimit="10" x1="271.863" y1="230.467" x2="271.863" y2="235.405"/>
	
		<line fill="none" stroke="#FF0000" stroke-width="0.1" stroke-miterlimit="10" x1="274.692" y1="230.467" x2="274.692" y2="235.405"/>
	
		<line fill="none" stroke="#FF0000" stroke-width="0.1" stroke-miterlimit="10" x1="280.359" y1="230.467" x2="280.359" y2="235.405"/>
	
		<line fill="none" stroke="#FF0000" stroke-width="0.1" stroke-miterlimit="10" x1="283.212" y1="230.467" x2="283.212" y2="235.405"/>
	
		<line fill="none" stroke="#FF0000" stroke-width="0.1" stroke-miterlimit="10" x1="286.025" y1="230.467" x2="286.025" y2="235.405"/>
	
		<line fill="none" stroke="#FF0000" stroke-width="0.1" stroke-miterlimit="10" x1="288.878" y1="230.467" x2="288.878" y2="235.405"/>
	
		<line fill="none" stroke="#FF0000" stroke-width="0.1" stroke-miterlimit="10" x1="294.566" y1="230.467" x2="294.566" y2="235.405"/>
	
		<line fill="none" stroke="#FF0000" stroke-width="0.1" stroke-miterlimit="10" x1="297.339" y1="230.467" x2="297.339" y2="235.405"/>
	
		<line fill="none" stroke="#FF0000" stroke-width="0.1" stroke-miterlimit="10" x1="300.214" y1="230.467" x2="300.214" y2="235.405"/>
	
		<line fill="none" stroke="#FF0000" stroke-width="0.1" stroke-miterlimit="10" x1="303.027" y1="230.467" x2="303.027" y2="235.405"/>
	
		<line fill="none" stroke="#FF0000" stroke-width="0.1" stroke-miterlimit="10" x1="308.714" y1="230.467" x2="308.714" y2="235.405"/>
	
		<line fill="none" stroke="#FF0000" stroke-width="0.1" stroke-miterlimit="10" x1="311.527" y1="230.467" x2="311.527" y2="235.405"/>
	
		<line fill="none" stroke="#FF0000" stroke-width="0.1" stroke-miterlimit="10" x1="314.38" y1="230.467" x2="314.38" y2="235.405"/>
	
		<line fill="none" stroke="#FF0000" stroke-width="0.1" stroke-miterlimit="10" x1="317.193" y1="230.467" x2="317.193" y2="235.405"/>
	
		<line fill="none" stroke="#FF0000" stroke-width="0.1" stroke-miterlimit="10" x1="322.88" y1="230.467" x2="322.88" y2="235.405"/>
	
		<line fill="none" stroke="#FF0000" stroke-width="0.1" stroke-miterlimit="10" x1="325.693" y1="230.467" x2="325.693" y2="235.405"/>
	
		<line fill="none" stroke="#FF0000" stroke-width="0.1" stroke-miterlimit="10" x1="328.546" y1="230.467" x2="328.546" y2="235.405"/>
	
		<line fill="none" stroke="#FF0000" stroke-width="0.1" stroke-miterlimit="10" x1="331.441" y1="230.467" x2="331.441" y2="235.405"/>
	
		<line fill="none" stroke="#FF0000" stroke-width="0.1" stroke-miterlimit="10" x1="337.047" y1="230.467" x2="337.047" y2="235.405"/>
	
		<line fill="none" stroke="#FF0000" stroke-width="0.1" stroke-miterlimit="10" x1="339.88" y1="230.467" x2="339.88" y2="235.405"/>
	
		<line fill="none" stroke="#FF0000" stroke-width="0.1" stroke-miterlimit="10" x1="342.735" y1="230.467" x2="342.735" y2="235.405"/>
	
		<line fill="none" stroke="#FF0000" stroke-width="0.1" stroke-miterlimit="10" x1="345.568" y1="230.467" x2="345.568" y2="235.405"/>
	
		<line fill="none" stroke="#FF0000" stroke-width="0.1" stroke-miterlimit="10" x1="351.14" y1="230.467" x2="351.14" y2="235.405"/>
	
		<line fill="none" stroke="#FF0000" stroke-width="0.1" stroke-miterlimit="10" x1="354.046" y1="230.467" x2="354.046" y2="235.405"/>
	<line fill="none" stroke="#FF0000" stroke-width="0.1" stroke-miterlimit="10" x1="356.9" y1="230.467" x2="356.9" y2="235.405"/>
	
		<line fill="none" stroke="#FF0000" stroke-width="0.1" stroke-miterlimit="10" x1="359.421" y1="230.467" x2="359.421" y2="235.405"/>
	
		<line fill="none" stroke="#FF0000" stroke-width="0.1" stroke-miterlimit="10" x1="365.378" y1="230.467" x2="365.378" y2="235.405"/>
	
		<line fill="none" stroke="#FF0000" stroke-width="0.1" stroke-miterlimit="10" x1="368.421" y1="230.467" x2="368.421" y2="235.405"/>
	
		<line fill="none" stroke="#FF0000" stroke-width="0.1" stroke-miterlimit="10" x1="371.066" y1="230.467" x2="371.066" y2="235.405"/>
	
		<line fill="none" stroke="#FF0000" stroke-width="0.1" stroke-miterlimit="10" x1="373.859" y1="230.467" x2="373.859" y2="235.405"/>
	
		<line fill="none" stroke="#FF0000" stroke-width="0.1" stroke-miterlimit="10" x1="379.587" y1="230.467" x2="379.587" y2="235.405"/>
	<line fill="none" stroke="#FF0000" stroke-width="0.1" stroke-miterlimit="10" x1="382.4" y1="230.467" x2="382.4" y2="235.405"/>
	
		<line fill="none" stroke="#FF0000" stroke-width="0.1" stroke-miterlimit="10" x1="385.316" y1="230.467" x2="385.316" y2="235.405"/>
	
		<line fill="none" stroke="#FF0000" stroke-width="0.1" stroke-miterlimit="10" x1="388.066" y1="230.467" x2="388.066" y2="235.405"/>
	
		<line fill="none" stroke="#FF0000" stroke-width="0.1" stroke-miterlimit="10" x1="393.753" y1="230.467" x2="393.753" y2="235.405"/>
	
		<line fill="none" stroke="#FF0000" stroke-width="0.1" stroke-miterlimit="10" x1="396.546" y1="230.467" x2="396.546" y2="235.405"/>
	<line fill="none" stroke="#FF0000" stroke-width="0.1" stroke-miterlimit="10" x1="399.4" y1="230.467" x2="399.4" y2="235.405"/>
	
		<line fill="none" stroke="#FF0000" stroke-width="0.1" stroke-miterlimit="10" x1="402.212" y1="230.467" x2="402.212" y2="235.405"/>
	
		<line fill="none" stroke="#FF0000" stroke-width="0.1" stroke-miterlimit="10" x1="407.921" y1="230.467" x2="407.921" y2="235.405"/>
	
		<line fill="none" stroke="#FF0000" stroke-width="0.1" stroke-miterlimit="10" x1="410.734" y1="230.467" x2="410.734" y2="235.405"/>
	
		<line fill="none" stroke="#FF0000" stroke-width="0.1" stroke-miterlimit="10" x1="413.566" y1="230.467" x2="413.566" y2="235.405"/>
	
		<line fill="none" stroke="#FF0000" stroke-width="0.1" stroke-miterlimit="10" x1="416.41" y1="230.467" x2="416.41" y2="235.405"/>
	
		<line fill="none" stroke="#FF0000" stroke-width="0.1" stroke-miterlimit="10" x1="422.097" y1="230.467" x2="422.097" y2="235.405"/>
	
		<line fill="none" stroke="#FF0000" stroke-width="0.1" stroke-miterlimit="10" x1="424.941" y1="230.467" x2="424.941" y2="235.405"/>
	
		<line fill="none" stroke="#FF0000" stroke-width="0.1" stroke-miterlimit="10" x1="427.785" y1="230.467" x2="427.785" y2="235.405"/>
	
		<line fill="none" stroke="#FF0000" stroke-width="0.1" stroke-miterlimit="10" x1="430.628" y1="230.467" x2="430.628" y2="235.405"/>
	
		<line fill="none" stroke="#FF0000" stroke-width="0.1" stroke-miterlimit="10" x1="436.316" y1="230.467" x2="436.316" y2="235.405"/>
	
		<line fill="none" stroke="#FF0000" stroke-width="0.1" stroke-miterlimit="10" x1="439.16" y1="230.467" x2="439.16" y2="235.405"/>
	
		<line fill="none" stroke="#FF0000" stroke-width="0.1" stroke-miterlimit="10" x1="441.89" y1="230.467" x2="441.89" y2="235.405"/>
	
		<line fill="none" stroke="#FF0000" stroke-width="0.1" stroke-miterlimit="10" x1="444.847" y1="230.467" x2="444.847" y2="235.405"/>
	<text transform="matrix(1 0 0 1 275.293 250.3389)" fill="#FF0000" font-family="'MyriadPro-Regular'" font-size="8">0</text>
</g>
<g id="cut_link">
	<rect x="106.055" y="247.174" fill="#FFFFFF" width="2.928" height="2.928"/>
	<rect x="446.381" y="247.174" fill="#FFFFFF" width="2.928" height="2.928"/>
	<g>
		<rect x="275.992" y="269.835" fill="#FFFFFF" width="2.928" height="2.928"/>
		<rect x="99.454" y="386.071" fill="#FFFFFF" width="2.928" height="2.928"/>
		<rect x="131.058" y="386.071" fill="#FFFFFF" width="2.928" height="2.928"/>
		<rect x="269.87" y="386.071" fill="#FFFFFF" width="2.928" height="2.928"/>
		<rect x="284.036" y="386.071" fill="#FFFFFF" width="2.928" height="2.928"/>
		<rect x="315.56" y="386.071" fill="#FFFFFF" width="2.928" height="2.928"/>
		<rect x="452.87" y="386.071" fill="#FFFFFF" width="2.928" height="2.928"/>
	</g>
	<g>
		<rect x="275.982" y="16" fill="#FFFFFF" width="2.928" height="2.928"/>
		<rect x="99.445" y="132.236" fill="#FFFFFF" width="2.928" height="2.928"/>
		<rect x="131.049" y="132.236" fill="#FFFFFF" width="2.928" height="2.928"/>
		<rect x="269.86" y="132.236" fill="#FFFFFF" width="2.928" height="2.928"/>
		<rect x="284.027" y="132.236" fill="#FFFFFF" width="2.928" height="2.928"/>
		<rect x="315.55" y="132.236" fill="#FFFFFF" width="2.928" height="2.928"/>
		<rect x="452.86" y="132.236" fill="#FFFFFF" width="2.928" height="2.928"/>
	</g>
</g>
</svg>
