<?xml version="1.0" encoding="utf-8"?>
<!-- Generator: Adobe Illustrator 16.0.0, SVG Export Plug-In . SVG Version: 6.00 Build 0)  -->
<!DOCTYPE svg PUBLIC "-//W3C//DTD SVG 1.1//EN" "http://www.w3.org/Graphics/SVG/1.1/DTD/svg11.dtd">
<svg version="1.1" id="Layer_1" xmlns="http://www.w3.org/2000/svg" xmlns:xlink="http://www.w3.org/1999/xlink" x="0px" y="0px"
	 width="1133.86px" height="850.39px" viewBox="0 0 1133.86 850.39" enable-background="new 0 0 1133.86 850.39"
	 xml:space="preserve">
<g>
	<circle fill="#FFFFFF" stroke="#000000" stroke-width="0.01" stroke-miterlimit="10" cx="441.083" cy="188.818" r="4.251"/>
	<path fill="#0000FF" d="M441.082,178.188c-5.869,0-10.629,4.76-10.629,10.631s4.76,10.629,10.629,10.629
		c5.873,0,10.631-4.758,10.631-10.629S446.955,178.188,441.082,178.188z M441.082,193.071c-2.348,0-4.25-1.904-4.25-4.252
		s1.902-4.252,4.25-4.252c2.35,0,4.252,1.904,4.252,4.252S443.431,193.071,441.082,193.071z"/>
	<circle fill="#FFFFFF" stroke="#000000" stroke-width="0.01" stroke-miterlimit="10" cx="441.083" cy="188.819" r="4.252"/>
	<circle fill="#FFFFFF" stroke="#000000" stroke-width="0.01" stroke-miterlimit="10" cx="370.034" cy="260.37" r="4.252"/>
	<path fill="#0000FF" d="M370.034,249.739c-5.871,0-10.629,4.76-10.629,10.631s4.758,10.629,10.629,10.629
		s10.631-4.758,10.631-10.629S375.905,249.739,370.034,249.739z M370.034,264.622c-2.348,0-4.252-1.904-4.252-4.252
		s1.904-4.252,4.252-4.252s4.252,1.904,4.252,4.252S372.381,264.622,370.034,264.622z"/>
	<circle fill="#FFFFFF" stroke="#000000" stroke-width="0.01" stroke-miterlimit="10" cx="370.035" cy="260.37" r="4.251"/>
	<circle fill="#FFFFFF" stroke="#000000" stroke-width="0.01" stroke-miterlimit="10" cx="370.034" cy="117.927" r="4.252"/>
	<path fill="#0000FF" d="M370.034,107.297c-5.871,0-10.629,4.76-10.629,10.631s4.758,10.629,10.629,10.629
		s10.631-4.758,10.631-10.629S375.905,107.297,370.034,107.297z M370.034,122.18c-2.348,0-4.252-1.904-4.252-4.252
		s1.904-4.252,4.252-4.252s4.252,1.904,4.252,4.252S372.381,122.18,370.034,122.18z"/>
	<circle fill="#FFFFFF" stroke="#000000" stroke-width="0.01" stroke-miterlimit="10" cx="370.035" cy="117.928" r="4.251"/>
	<circle fill="#FFFFFF" stroke="#000000" stroke-width="0.01" stroke-miterlimit="10" cx="113.737" cy="189.479" r="4.251"/>
	<path fill="#0000FF" d="M113.738,200.108c5.869,0,10.629-4.76,10.629-10.631s-4.76-10.629-10.629-10.629
		c-5.873,0-10.631,4.758-10.631,10.629S107.865,200.108,113.738,200.108z M113.738,185.226c2.348,0,4.25,1.904,4.25,4.252
		s-1.902,4.252-4.25,4.252c-2.35,0-4.252-1.904-4.252-4.252S111.389,185.226,113.738,185.226z"/>
	<circle fill="#FFFFFF" stroke="#000000" stroke-width="0.01" stroke-miterlimit="10" cx="113.736" cy="189.478" r="4.252"/>
	<circle fill="#FFFFFF" stroke="#000000" stroke-width="0.01" stroke-miterlimit="10" cx="184.787" cy="117.928" r="4.251"/>
	<path fill="#0000FF" d="M184.787,128.557c5.87,0,10.629-4.76,10.629-10.631s-4.759-10.629-10.629-10.629
		c-5.872,0-10.631,4.758-10.631,10.629S178.915,128.557,184.787,128.557z M184.787,113.674c2.348,0,4.251,1.904,4.251,4.252
		s-1.903,4.252-4.251,4.252c-2.349,0-4.252-1.904-4.252-4.252S182.438,113.674,184.787,113.674z"/>
	<circle fill="#FFFFFF" stroke="#000000" stroke-width="0.01" stroke-miterlimit="10" cx="184.786" cy="117.926" r="4.251"/>
	<circle fill="#FFFFFF" stroke="#000000" stroke-width="0.01" stroke-miterlimit="10" cx="184.787" cy="260.37" r="4.251"/>
	<path fill="#0000FC" d="M184.787,270.999c5.87,0,10.629-4.76,10.629-10.631s-4.759-10.629-10.629-10.629
		c-5.872,0-10.631,4.758-10.631,10.629S178.915,270.999,184.787,270.999z M184.787,256.116c2.348,0,4.251,1.904,4.251,4.252
		s-1.903,4.252-4.251,4.252c-2.349,0-4.252-1.904-4.252-4.252S182.438,256.116,184.787,256.116z"/>
	<circle fill="#FFFFFF" stroke="#000000" stroke-width="0.01" stroke-miterlimit="10" cx="184.786" cy="260.368" r="4.251"/>
	<g>
		<g>
			<path fill="#FF0000" d="M184.871,129.713c-32.485,0-58.819,26.334-58.819,58.82c0,32.485,26.334,58.819,58.819,58.819
				s58.819-26.334,58.819-58.819C243.69,156.047,217.356,129.713,184.871,129.713z M184.871,243.101
				c-30.137,0-54.567-24.432-54.567-54.569c0-30.135,24.431-54.566,54.567-54.566c30.138,0,54.567,24.432,54.567,54.566
				C239.438,218.669,215.009,243.101,184.871,243.101z"/>
			<g>
				<circle fill="none" stroke="#D40000" stroke-width="0.25" stroke-miterlimit="10" cx="184.871" cy="188.532" r="5.5"/>
				<g>
					
						<line fill="none" stroke="#D40000" stroke-width="0.25" stroke-miterlimit="10" x1="184.871" y1="170.215" x2="184.871" y2="206.848"/>
					
						<line fill="none" stroke="#D40000" stroke-width="0.25" stroke-miterlimit="10" x1="203.189" y1="188.532" x2="166.554" y2="188.532"/>
				</g>
			</g>
		</g>
		<g>
			<path fill="#FF0000" d="M369.362,129.713c-32.484,0-58.818,26.334-58.818,58.82c0,32.485,26.334,58.819,58.818,58.819
				c32.485,0,58.819-26.334,58.819-58.819C428.181,156.047,401.847,129.713,369.362,129.713z M369.362,243.101
				c-30.137,0-54.566-24.432-54.566-54.569c0-30.135,24.43-54.566,54.566-54.566c30.138,0,54.567,24.432,54.567,54.566
				C423.929,218.669,399.5,243.101,369.362,243.101z"/>
			<g>
				<circle fill="none" stroke="#D40000" stroke-width="0.25" stroke-miterlimit="10" cx="369.362" cy="188.532" r="5.5"/>
				<g>
					
						<line fill="none" stroke="#D40000" stroke-width="0.25" stroke-miterlimit="10" x1="369.362" y1="170.215" x2="369.362" y2="206.848"/>
					
						<line fill="none" stroke="#D40000" stroke-width="0.25" stroke-miterlimit="10" x1="387.68" y1="188.532" x2="351.045" y2="188.532"/>
				</g>
			</g>
		</g>
		<path fill="none" stroke="#000000" stroke-width="0.001" stroke-miterlimit="10" d="M369.321,104.402
			c-8.119,0-15.963,1.164-23.396,3.295c-15.404-21.373-40.49-35.305-68.849-35.305c-28.356,0-53.44,13.932-68.845,35.305
			c-7.436-2.131-15.279-3.295-23.399-3.295c-46.854,0-84.836,37.982-84.836,84.836c0,46.855,37.982,84.835,84.836,84.835
			c46.855,0,84.838-37.98,84.838-84.835c0-29.221-14.775-54.987-37.261-70.245c10.788-12.591,26.789-20.584,44.669-20.584
			c17.88,0,33.882,7.993,44.669,20.584c-22.484,15.259-37.262,41.025-37.262,70.245c0,46.855,37.984,84.835,84.836,84.835
			c46.856,0,84.839-37.98,84.839-84.835C454.16,142.384,416.177,104.402,369.321,104.402z"/>
	</g>
	
		<line fill="none" stroke="#D40000" stroke-width="0.25" stroke-miterlimit="10" x1="277.612" y1="168.445" x2="277.612" y2="205.079"/>
	
		<line fill="none" stroke="#D40000" stroke-width="0.25" stroke-miterlimit="10" x1="368.944" y1="280.444" x2="368.944" y2="306.079"/>
	
		<line fill="none" stroke="#D40000" stroke-width="0.25" stroke-miterlimit="10" x1="184.944" y1="280.444" x2="184.944" y2="306.079"/>
	
		<line fill="none" stroke="#D40000" stroke-width="0.25" stroke-miterlimit="10" x1="184.709" y1="77.445" x2="184.709" y2="103.079"/>
	
		<line fill="none" stroke="#FF0000" stroke-width="0.25" stroke-miterlimit="10" x1="366.053" y1="291.762" x2="187.836" y2="291.762"/>
	
		<line fill="none" stroke="#D40000" stroke-width="0.25" stroke-miterlimit="10" x1="96.662" y1="188.762" x2="61.627" y2="188.762"/>
	
		<line fill="none" stroke="#D40000" stroke-width="0.25" stroke-miterlimit="10" x1="490.662" y1="188.762" x2="455.627" y2="188.762"/>
	<text transform="matrix(1 0 0 1 261.7808 288.4482)" fill="#FF0000" font-family="'MyriadPro-Regular'" font-size="8">650mm</text>
	
		<line fill="none" stroke="#D40000" stroke-width="0.25" stroke-miterlimit="10" x1="243.088" y1="42.318" x2="243.088" y2="67.953"/>
	
		<line fill="none" stroke="#D40000" stroke-width="0.25" stroke-miterlimit="10" x1="125.776" y1="42.318" x2="125.776" y2="67.953"/>
	
		<line fill="none" stroke="#FF0000" stroke-width="0.25" stroke-miterlimit="10" x1="241.747" y1="55.136" x2="127.118" y2="55.136"/>
	<text transform="matrix(1 0 0 1 170.6201 69.6719)" fill="#FF0000" font-family="'MyriadPro-Regular'" font-size="8">41.5mm</text>
	<g>
		<g>
			<path fill="#FF0000" d="M98.3,352.602c0,2.65-1.607,4.258-3.97,4.258c-2.398,0-3.802-1.811-3.802-4.113
				c0-2.423,1.547-4.234,3.934-4.234C96.945,348.512,98.3,350.371,98.3,352.602z M92.459,352.71c0,1.583,0.744,2.698,1.967,2.698
				c1.235,0,1.943-1.176,1.943-2.746c0-1.451-0.696-2.699-1.955-2.699C93.179,349.963,92.459,351.139,92.459,352.71z"/>
			<path fill="#FF0000" d="M99.504,348.752c0.564-0.096,1.355-0.168,2.471-0.168c1.127,0,1.931,0.216,2.471,0.647
				c0.516,0.408,0.863,1.08,0.863,1.871c0,0.792-0.264,1.463-0.743,1.919c-0.624,0.588-1.547,0.852-2.627,0.852
				c-0.24,0-0.456-0.012-0.624-0.036v2.891h-1.811V348.752z M101.315,352.422c0.156,0.036,0.348,0.048,0.612,0.048
				c0.971,0,1.571-0.491,1.571-1.319c0-0.743-0.516-1.188-1.427-1.188c-0.372,0-0.624,0.036-0.755,0.072V352.422z"/>
			<path fill="#FF0000" d="M111.286,353.31h-2.975v1.919h3.322v1.499h-5.157v-8.084h4.989v1.5h-3.154v1.679h2.975V353.31z"/>
			<path fill="#FF0000" d="M112.884,356.728v-8.084h2.135l1.679,2.963c0.48,0.852,0.959,1.858,1.319,2.771h0.036
				c-0.12-1.067-0.156-2.159-0.156-3.37v-2.363h1.679v8.084h-1.919l-1.727-3.118c-0.48-0.863-1.007-1.907-1.403-2.854l-0.036,0.012
				c0.048,1.067,0.072,2.207,0.072,3.526v2.435H112.884z"/>
			<path fill="#FF0000" d="M128.397,353.31h-2.975v1.919h3.322v1.499h-5.157v-8.084h4.989v1.5h-3.154v1.679h2.975V353.31z"/>
			<path fill="#FF0000" d="M131.867,356.728v-3.311l-2.555-4.773h2.087l0.828,1.943c0.252,0.588,0.419,1.02,0.624,1.547h0.024
				c0.18-0.504,0.372-0.972,0.612-1.547l0.815-1.943h2.051l-2.663,4.714v3.37H131.867z"/>
			<path fill="#FF0000" d="M141.826,353.31h-2.975v1.919h3.322v1.499h-5.157v-8.084h4.989v1.5h-3.154v1.679h2.975V353.31z"/>
			<path fill="#FF0000" d="M144.815,356.728l-1.919-8.084h1.955l0.612,3.335c0.18,0.959,0.348,2.003,0.479,2.818h0.024
				c0.132-0.876,0.324-1.848,0.528-2.843l0.684-3.311h1.943l0.648,3.406c0.18,0.948,0.312,1.812,0.432,2.711h0.024
				c0.12-0.899,0.3-1.847,0.468-2.807l0.66-3.311h1.859l-2.087,8.084h-1.979l-0.684-3.479c-0.156-0.815-0.288-1.57-0.384-2.494
				h-0.024c-0.144,0.911-0.276,1.679-0.468,2.494l-0.768,3.479H144.815z"/>
			<path fill="#FF0000" d="M158.973,353.31h-2.975v1.919h3.322v1.499h-5.157v-8.084h4.989v1.5h-3.154v1.679h2.975V353.31z"/>
			<path fill="#FF0000" d="M162.455,354.652l-0.576,2.075h-1.895l2.47-8.084h2.399l2.506,8.084h-1.967l-0.624-2.075H162.455z
				 M164.506,353.285l-0.504-1.715c-0.144-0.479-0.288-1.079-0.408-1.559h-0.024c-0.12,0.479-0.24,1.091-0.372,1.559l-0.479,1.715
				H164.506z"/>
			<path fill="#FF0000" d="M168.443,348.752c0.588-0.096,1.463-0.168,2.435-0.168c1.2,0,2.039,0.18,2.615,0.636
				c0.479,0.384,0.744,0.947,0.744,1.691c0,1.031-0.732,1.738-1.427,1.99v0.036c0.563,0.228,0.875,0.768,1.079,1.512
				c0.252,0.911,0.504,1.967,0.66,2.278h-1.871c-0.132-0.228-0.324-0.888-0.564-1.883c-0.216-1.008-0.563-1.283-1.307-1.296h-0.552
				v3.179h-1.811V348.752z M170.254,352.23h0.72c0.912,0,1.451-0.456,1.451-1.164c0-0.743-0.504-1.115-1.343-1.127
				c-0.444,0-0.696,0.036-0.828,0.06V352.23z"/>
			<path fill="#FF0000" d="M182.628,351.472c-0.184-0.016-0.37-0.028-0.558-0.036s-0.374-0.012-0.558-0.012h-2.016v4.235
				c0,0.425,0.006,0.807,0.018,1.146c0.012,0.34,0.038,0.71,0.078,1.11h-1.08c0.016-0.209,0.03-0.402,0.042-0.582
				c0.012-0.181,0.022-0.358,0.03-0.534c0.008-0.176,0.014-0.356,0.018-0.54c0.004-0.185,0.006-0.384,0.006-0.601v-6.636
				c0-0.256-0.002-0.5-0.006-0.731c-0.004-0.232-0.01-0.44-0.018-0.624c0.184,0.016,0.372,0.027,0.564,0.035
				c0.192,0.009,0.38,0.013,0.564,0.013h1.8c0.184,0,0.37-0.004,0.558-0.013c0.188-0.008,0.374-0.02,0.558-0.035
				c-0.016,0.184-0.028,0.39-0.036,0.617c-0.008,0.229-0.012,0.475-0.012,0.738v1.236c0,0.264,0.004,0.488,0.012,0.672
				S182.612,351.296,182.628,351.472z M181.776,348.46h-2.28v0.768h2.28V348.46z M181.776,349.972h-2.28v0.744h2.28V349.972z
				 M182.52,354.903c-0.08,0.48-0.248,0.958-0.504,1.435c-0.256,0.476-0.588,0.878-0.996,1.206c-0.08-0.112-0.19-0.225-0.33-0.336
				c-0.14-0.112-0.31-0.213-0.51-0.301c0.408-0.184,0.738-0.454,0.99-0.81c0.252-0.356,0.418-0.754,0.498-1.194
				c-0.28,0.008-0.566,0.019-0.858,0.03c-0.292,0.012-0.563,0.034-0.81,0.066v-0.925c0.256,0.032,0.532,0.057,0.828,0.072
				c0.295,0.017,0.592,0.024,0.888,0.024v-1.345c-0.432,0.017-0.852,0.053-1.26,0.108v-0.924c0.12,0.016,0.248,0.032,0.384,0.048
				s0.308,0.028,0.516,0.036s0.462,0.014,0.762,0.018c0.3,0.004,0.674,0.006,1.122,0.006c0.44,0,0.808-0.002,1.104-0.006
				s0.548-0.01,0.756-0.018c0.208-0.008,0.382-0.019,0.522-0.03c0.14-0.012,0.274-0.03,0.402-0.054v0.924
				c-0.392-0.056-0.816-0.092-1.272-0.108v1.345c0.296,0,0.596-0.008,0.9-0.024c0.304-0.016,0.584-0.04,0.84-0.072V355
				c-0.256-0.032-0.536-0.057-0.84-0.072c-0.304-0.017-0.604-0.024-0.9-0.024v1.08c0,0.328,0.008,0.624,0.024,0.888
				c0.016,0.265,0.036,0.488,0.06,0.673h-0.996c0.048-0.36,0.072-0.88,0.072-1.561v-1.08H182.52z M183.912,354.172v-1.345h-1.344
				v1.345H183.912z M187.86,347.716c-0.008,0.184-0.014,0.392-0.018,0.624c-0.004,0.231-0.006,0.476-0.006,0.731v7.645
				c0,0.256-0.022,0.464-0.066,0.624c-0.044,0.159-0.124,0.285-0.24,0.378c-0.116,0.092-0.276,0.164-0.48,0.216
				s-0.47,0.098-0.798,0.138c0.008-0.208-0.01-0.392-0.054-0.552s-0.13-0.316-0.258-0.468c0.232,0.008,0.414,0.006,0.546-0.006
				c0.132-0.013,0.232-0.04,0.3-0.084c0.068-0.045,0.11-0.108,0.126-0.192c0.016-0.084,0.024-0.194,0.024-0.33v-5.04h-2.148
				c-0.184,0-0.37,0.004-0.558,0.012c-0.188,0.009-0.374,0.021-0.558,0.036c0.016-0.184,0.028-0.355,0.036-0.516
				c0.008-0.16,0.012-0.372,0.012-0.636v-1.225c0-0.264-0.004-0.51-0.012-0.737c-0.008-0.229-0.02-0.435-0.036-0.618
				c0.184,0.016,0.37,0.028,0.558,0.036s0.374,0.012,0.558,0.012h1.956c0.184,0,0.37-0.004,0.558-0.012
				S187.676,347.731,187.86,347.716z M186.936,348.483h-2.376v0.756h2.376V348.483z M186.936,349.911h-2.376v0.757h2.376V349.911z"
				/>
			<path fill="#FF0000" d="M193.86,351.844c0.16,0,0.312-0.004,0.456-0.013c0.144-0.008,0.264-0.02,0.36-0.035l-0.24,4.392
				c-0.016,0.256-0.056,0.472-0.12,0.648c-0.064,0.176-0.172,0.323-0.324,0.443s-0.358,0.22-0.618,0.3
				c-0.26,0.08-0.594,0.152-1.002,0.217c0.008-0.177-0.026-0.383-0.102-0.618c-0.076-0.236-0.182-0.45-0.318-0.643
				c0.512,0.089,0.886,0.076,1.122-0.035c0.236-0.112,0.362-0.309,0.378-0.589l0.18-3.168h-1.344
				c-0.056,0.584-0.126,1.112-0.21,1.584c-0.084,0.473-0.188,0.906-0.312,1.303c-0.125,0.396-0.272,0.768-0.444,1.115
				c-0.172,0.349-0.374,0.694-0.606,1.038c-0.144-0.136-0.306-0.25-0.486-0.342c-0.18-0.092-0.362-0.149-0.546-0.174
				c0.336-0.424,0.612-0.854,0.828-1.29c0.216-0.436,0.39-0.924,0.522-1.464c0.132-0.54,0.228-1.158,0.288-1.854
				c0.06-0.695,0.11-1.523,0.15-2.483c-0.616,0-1.152,0.023-1.608,0.071v-1.044c0.336,0.032,0.712,0.055,1.128,0.066
				s0.924,0.018,1.524,0.018c0.6,0,1.11-0.006,1.53-0.018s0.786-0.034,1.098-0.066v1.044c-0.152-0.016-0.314-0.029-0.486-0.042
				c-0.172-0.012-0.366-0.02-0.582-0.023c-0.216-0.004-0.456-0.008-0.72-0.012s-0.564-0.007-0.9-0.007
				c-0.016,0.305-0.032,0.595-0.048,0.87c-0.016,0.276-0.032,0.546-0.048,0.811H193.86z M192.372,349.071
				c-0.048-0.24-0.114-0.496-0.198-0.768c-0.084-0.272-0.182-0.524-0.294-0.756l1.08-0.444c0.064,0.2,0.146,0.432,0.246,0.696
				c0.1,0.264,0.206,0.523,0.318,0.779L192.372,349.071z M197.34,354.903c0.288-0.432,0.508-1.042,0.66-1.83
				c0.152-0.787,0.244-1.766,0.276-2.934h-1.812c-0.136,0.344-0.308,0.696-0.516,1.056c-0.208,0.36-0.404,0.656-0.588,0.889
				c-0.128-0.089-0.272-0.181-0.432-0.276s-0.316-0.18-0.468-0.252c0.304-0.36,0.56-0.722,0.768-1.086
				c0.208-0.364,0.382-0.732,0.522-1.104c0.14-0.372,0.25-0.75,0.33-1.134c0.08-0.384,0.144-0.784,0.192-1.2
				c0.08,0.04,0.18,0.082,0.3,0.126s0.244,0.084,0.372,0.12s0.25,0.07,0.366,0.103c0.116,0.031,0.21,0.052,0.282,0.06
				c0.056,0.008,0.084,0.038,0.084,0.09c0,0.053-0.044,0.099-0.132,0.139c-0.04,0.023-0.116,0.151-0.228,0.384
				c-0.112,0.231-0.28,0.628-0.504,1.188h2.016c0.48,0,0.832-0.006,1.056-0.018s0.404-0.03,0.54-0.054v1.008
				c-0.152-0.017-0.312-0.026-0.48-0.03s-0.392-0.006-0.672-0.006c-0.048,0.744-0.102,1.386-0.162,1.926s-0.138,1.019-0.234,1.435
				c-0.096,0.416-0.214,0.785-0.354,1.109c-0.14,0.324-0.31,0.646-0.51,0.966c0.432,0.336,0.868,0.582,1.308,0.738
				s0.9,0.25,1.38,0.282c-0.192,0.184-0.348,0.382-0.468,0.594s-0.212,0.426-0.276,0.642c-0.504-0.208-0.958-0.418-1.362-0.63
				s-0.79-0.485-1.158-0.821c-0.28,0.352-0.584,0.651-0.912,0.899s-0.712,0.488-1.152,0.721c-0.104-0.185-0.234-0.351-0.39-0.498
				c-0.156-0.148-0.338-0.274-0.546-0.378c0.512-0.177,0.946-0.379,1.302-0.606c0.356-0.229,0.694-0.522,1.014-0.882
				c-0.248-0.368-0.478-0.856-0.69-1.464c-0.212-0.608-0.366-1.336-0.462-2.185l0.876-0.216c0.136,0.824,0.274,1.488,0.414,1.992
				C197.03,354.268,197.18,354.647,197.34,354.903z"/>
			<path fill="#FF0000" d="M203.544,353.308c-0.248,0.28-0.492,0.55-0.732,0.81c-0.24,0.261-0.464,0.494-0.672,0.702
				c-0.072-0.216-0.146-0.396-0.222-0.54c-0.076-0.144-0.182-0.283-0.318-0.42c0.312-0.208,0.622-0.454,0.93-0.738
				c0.308-0.283,0.594-0.588,0.858-0.911c0.264-0.324,0.502-0.66,0.714-1.009c0.212-0.348,0.382-0.693,0.51-1.038h-1.284
				c-0.256,0-0.514,0.009-0.774,0.024c-0.26,0.017-0.482,0.044-0.666,0.084v-1.02c0.232,0.04,0.532,0.067,0.9,0.084
				c0.368,0.016,0.732,0.023,1.092,0.023c0.28,0,0.526-0.002,0.738-0.006s0.398-0.01,0.558-0.018s0.304-0.019,0.432-0.03
				s0.252-0.026,0.372-0.042c-0.328,0.76-0.62,1.386-0.876,1.878c-0.256,0.492-0.476,0.858-0.66,1.098v3.685
				c0,0.359,0.004,0.691,0.012,0.996c0.008,0.304,0.024,0.64,0.048,1.008h-1.02c0.024-0.368,0.04-0.704,0.048-1.008
				c0.008-0.305,0.012-0.637,0.012-0.996V353.308z M204.048,349.107c-0.056-0.28-0.136-0.563-0.24-0.852
				c-0.104-0.288-0.244-0.576-0.42-0.864l1.02-0.3c0.272,0.527,0.52,1.092,0.744,1.691L204.048,349.107z M205.356,354.111
				c-0.128-0.296-0.258-0.558-0.39-0.786c-0.132-0.228-0.302-0.474-0.51-0.737l0.72-0.48c0.2,0.264,0.372,0.5,0.516,0.708
				s0.304,0.448,0.48,0.72L205.356,354.111z M210.108,356.319c0,0.208,0.042,0.351,0.126,0.426c0.084,0.076,0.29,0.114,0.618,0.114
				c0.16,0,0.29-0.008,0.39-0.023c0.1-0.017,0.182-0.061,0.246-0.133c0.064-0.071,0.116-0.184,0.156-0.336
				c0.04-0.151,0.084-0.359,0.132-0.624c0.136,0.185,0.29,0.322,0.462,0.414c0.172,0.093,0.354,0.146,0.546,0.162
				c-0.136,0.353-0.25,0.624-0.342,0.816c-0.092,0.191-0.202,0.334-0.33,0.426s-0.29,0.146-0.486,0.162
				c-0.196,0.016-0.466,0.023-0.81,0.023c-0.352,0-0.636-0.016-0.852-0.048s-0.382-0.088-0.498-0.168
				c-0.116-0.08-0.192-0.18-0.228-0.3s-0.054-0.271-0.054-0.456v-2.784h-0.768c-0.016,0.456-0.074,0.878-0.174,1.267
				c-0.1,0.388-0.256,0.746-0.468,1.073c-0.212,0.328-0.49,0.633-0.834,0.912c-0.344,0.28-0.76,0.54-1.248,0.78
				c-0.096-0.184-0.204-0.344-0.324-0.479c-0.12-0.137-0.276-0.284-0.468-0.444c0.888-0.225,1.54-0.584,1.956-1.08
				s0.636-1.172,0.66-2.028c-0.224,0.009-0.426,0.019-0.606,0.03c-0.18,0.012-0.35,0.03-0.51,0.054
				c0.016-0.159,0.03-0.361,0.042-0.605s0.018-0.494,0.018-0.75v-3.576c0-0.256-0.006-0.498-0.018-0.726
				c-0.012-0.229-0.026-0.438-0.042-0.631c0.216,0.032,0.55,0.059,1.002,0.078c0.452,0.021,1.002,0.03,1.65,0.03
				s1.194-0.01,1.638-0.03c0.444-0.02,0.782-0.046,1.014-0.078c-0.016,0.168-0.028,0.372-0.036,0.612
				c-0.008,0.24-0.012,0.488-0.012,0.744v3.576c0,0.256,0.004,0.502,0.012,0.738c0.008,0.235,0.02,0.441,0.036,0.617
				c-0.056-0.008-0.138-0.016-0.246-0.023s-0.234-0.017-0.378-0.024s-0.298-0.016-0.462-0.023s-0.334-0.013-0.51-0.013V356.319z
				 M210.756,348.699h-3.396v0.996h3.396V348.699z M210.756,350.439h-3.396v1.021h3.396V350.439z M210.756,352.203h-3.396v1.032
				h3.396V352.203z"/>
			<path fill="#FF0000" d="M216.492,347.955c0.336,0.209,0.642,0.406,0.918,0.595c0.276,0.188,0.562,0.39,0.858,0.605l-0.66,0.721
				c-0.264-0.232-0.512-0.448-0.744-0.648s-0.488-0.412-0.768-0.636c-0.136,0.224-0.292,0.462-0.468,0.714
				c-0.176,0.252-0.376,0.526-0.6,0.822c0.16,0.023,0.338,0.042,0.534,0.054c0.196,0.012,0.43,0.018,0.702,0.018
				c0.336,0,0.62-0.01,0.852-0.029c0.232-0.021,0.44-0.05,0.624-0.091v0.925c-0.288-0.072-0.676-0.112-1.164-0.12v1.176
				c0.32-0.008,0.598-0.021,0.834-0.042c0.236-0.02,0.458-0.05,0.666-0.09v0.983c-0.208-0.039-0.43-0.069-0.666-0.09
				c-0.236-0.02-0.514-0.029-0.834-0.029v3.06c0.336-0.063,0.654-0.128,0.954-0.192c0.3-0.063,0.582-0.132,0.846-0.204
				c-0.064,0.192-0.102,0.356-0.114,0.492c-0.012,0.137-0.014,0.261-0.006,0.372c-0.8,0.137-1.524,0.269-2.172,0.396
				s-1.284,0.271-1.908,0.432c-0.032-0.168-0.072-0.316-0.12-0.444c-0.048-0.128-0.128-0.287-0.24-0.479
				c0.336-0.032,0.666-0.068,0.99-0.108c0.324-0.04,0.638-0.084,0.942-0.132v-3.204c-0.36,0.009-0.672,0.022-0.936,0.042
				c-0.264,0.021-0.508,0.051-0.732,0.09v-0.983c0.232,0.04,0.478,0.07,0.738,0.09c0.26,0.021,0.57,0.034,0.93,0.042v-1.164
				c-0.2,0.008-0.374,0.021-0.522,0.036c-0.148,0.016-0.29,0.04-0.426,0.072v-0.576c-0.064,0.088-0.132,0.174-0.204,0.258
				c-0.072,0.084-0.144,0.17-0.216,0.258c-0.136-0.12-0.26-0.22-0.372-0.3s-0.248-0.164-0.408-0.252
				c0.552-0.488,1.008-1,1.368-1.536c0.36-0.536,0.664-1.14,0.912-1.812c0.192,0.088,0.378,0.168,0.558,0.239
				c0.18,0.072,0.35,0.137,0.51,0.192c0.152,0.04,0.14,0.092-0.036,0.156c-0.08,0.023-0.154,0.065-0.222,0.126
				C216.622,347.817,216.556,347.884,216.492,347.955z M214.584,355.348c-0.112-0.576-0.28-1.152-0.504-1.729l0.852-0.239
				c0.104,0.279,0.194,0.55,0.27,0.81c0.076,0.26,0.154,0.566,0.234,0.918L214.584,355.348z M218.256,353.619
				c-0.096,0.28-0.192,0.536-0.288,0.769c-0.096,0.232-0.212,0.512-0.348,0.84l-0.768-0.264c0.128-0.32,0.234-0.604,0.318-0.853
				s0.17-0.512,0.258-0.792L218.256,353.619z M222.264,356.367c0,0.225,0.034,0.368,0.102,0.433
				c0.068,0.063,0.214,0.096,0.438,0.096c0.16,0,0.294-0.01,0.402-0.03c0.108-0.02,0.196-0.063,0.264-0.132
				c0.068-0.067,0.124-0.17,0.168-0.306s0.086-0.32,0.126-0.552c0.152,0.136,0.302,0.233,0.45,0.294
				c0.148,0.06,0.338,0.113,0.57,0.161c-0.104,0.297-0.206,0.534-0.306,0.715c-0.1,0.18-0.222,0.317-0.366,0.414
				c-0.144,0.096-0.322,0.159-0.534,0.191c-0.212,0.032-0.482,0.048-0.81,0.048c-0.28,0-0.506-0.016-0.678-0.048
				s-0.31-0.082-0.414-0.149c-0.104-0.068-0.174-0.158-0.21-0.271s-0.054-0.248-0.054-0.408v-1.788h-0.708
				c-0.024,0.393-0.096,0.738-0.216,1.038c-0.12,0.301-0.292,0.568-0.516,0.805c-0.224,0.235-0.504,0.441-0.84,0.617
				c-0.336,0.177-0.732,0.336-1.188,0.48c-0.08-0.185-0.162-0.344-0.246-0.48c-0.084-0.136-0.194-0.271-0.33-0.407
				c0.464-0.08,0.85-0.175,1.158-0.282c0.308-0.108,0.554-0.24,0.738-0.396c0.184-0.155,0.316-0.346,0.396-0.569
				c0.08-0.225,0.128-0.492,0.144-0.805c-0.496,0.009-0.852,0.032-1.068,0.072c0.008-0.056,0.014-0.136,0.018-0.24
				c0.004-0.104,0.008-0.214,0.012-0.33c0.004-0.115,0.008-0.229,0.012-0.342c0.004-0.111,0.006-0.204,0.006-0.275v-1.225
				c0-0.231-0.004-0.451-0.012-0.66c-0.008-0.208-0.02-0.355-0.036-0.443c0.072,0,0.192,0.002,0.36,0.006s0.36,0.008,0.576,0.012
				s0.446,0.008,0.69,0.012c0.244,0.005,0.474,0.007,0.69,0.007c0.76,0,1.354-0.002,1.782-0.007
				c0.428-0.004,0.734-0.014,0.918-0.029c-0.008,0.088-0.016,0.235-0.024,0.443c-0.008,0.209-0.012,0.429-0.012,0.66v1.225
				c0,0.071,0.002,0.164,0.006,0.275c0.004,0.112,0.008,0.227,0.012,0.342c0.004,0.116,0.008,0.227,0.012,0.33
				c0.004,0.104,0.006,0.185,0.006,0.24c-0.136-0.023-0.314-0.042-0.534-0.054s-0.538-0.019-0.954-0.019V356.367z M219.9,350.308
				c-0.064-0.128-0.136-0.266-0.216-0.414c-0.08-0.148-0.168-0.29-0.264-0.426l0.996-0.252c0.088,0.176,0.164,0.344,0.228,0.504
				c0.064,0.16,0.12,0.355,0.168,0.588h0.9c0.08-0.184,0.152-0.366,0.216-0.546c0.064-0.181,0.124-0.374,0.18-0.582
				c0.184,0.064,0.35,0.118,0.498,0.162s0.298,0.086,0.45,0.126c0.128,0.04,0.132,0.1,0.012,0.18
				c-0.064,0.04-0.124,0.104-0.18,0.192c-0.056,0.088-0.14,0.244-0.252,0.468c0.4-0.008,0.756-0.019,1.068-0.03
				s0.608-0.03,0.888-0.054v0.864c-0.4-0.032-0.854-0.057-1.362-0.072c-0.508-0.016-1.126-0.024-1.854-0.024
				c-0.744,0-1.366,0.009-1.866,0.024s-0.95,0.04-1.35,0.072v-0.864c0.304,0.023,0.598,0.042,0.882,0.054
				C219.326,350.289,219.612,350.3,219.9,350.308z M220.896,348.327c-0.064-0.184-0.13-0.359-0.198-0.527s-0.15-0.328-0.246-0.48
				l1.02-0.264c0.208,0.424,0.34,0.848,0.396,1.271c0.512-0.008,0.954-0.02,1.326-0.035c0.372-0.017,0.71-0.032,1.014-0.049v0.853
				c-0.36-0.04-0.768-0.066-1.224-0.078S221.96,349,221.28,349c-0.672,0-1.24,0.008-1.704,0.023
				c-0.464,0.017-0.876,0.04-1.236,0.072v-0.853c0.328,0.032,0.694,0.055,1.098,0.066
				C219.842,348.321,220.328,348.327,220.896,348.327z M222.912,352.336h-3.336v0.624h3.336V352.336z M222.912,353.655h-3.336v0.672
				h3.336V353.655z"/>
		</g>
		<g>
			<path fill="#FF0000" d="M90.96,334.845c0.492,0.252,1.247,0.504,2.027,0.504c0.839,0,1.283-0.349,1.283-0.876
				c0-0.504-0.384-0.791-1.355-1.14c-1.343-0.468-2.219-1.211-2.219-2.387c0-1.379,1.151-2.435,3.058-2.435
				c0.912,0,1.583,0.192,2.063,0.408l-0.408,1.475c-0.324-0.155-0.9-0.383-1.691-0.383s-1.175,0.359-1.175,0.779
				c0,0.516,0.456,0.743,1.499,1.139c1.427,0.528,2.099,1.271,2.099,2.411c0,1.355-1.043,2.507-3.262,2.507
				c-0.923,0-1.835-0.24-2.291-0.492L90.96,334.845z"/>
			<path fill="#FF0000" d="M98.939,330.179h-2.171v-1.535h6.213v1.535h-2.207v6.549h-1.835V330.179z"/>
			<path fill="#FF0000" d="M108.766,333.31h-2.975v1.919h3.322v1.499h-5.157v-8.084h4.989v1.5h-3.154v1.679h2.975V333.31z"/>
			<path fill="#FF0000" d="M110.364,328.752c0.588-0.096,1.463-0.168,2.435-0.168c1.2,0,2.039,0.18,2.615,0.636
				c0.479,0.384,0.744,0.947,0.744,1.691c0,1.031-0.732,1.738-1.427,1.99v0.036c0.563,0.228,0.875,0.768,1.079,1.512
				c0.252,0.911,0.504,1.967,0.66,2.278h-1.871c-0.132-0.228-0.324-0.888-0.564-1.883c-0.216-1.008-0.563-1.283-1.307-1.296h-0.552
				v3.179h-1.811V328.752z M112.175,332.23h0.72c0.912,0,1.451-0.456,1.451-1.164c0-0.743-0.504-1.115-1.343-1.127
				c-0.444,0-0.696,0.036-0.828,0.06V332.23z"/>
			<path fill="#FF0000" d="M122.29,333.31h-2.975v1.919h3.322v1.499h-5.157v-8.084h4.989v1.5h-3.154v1.679h2.975V333.31z"/>
			<path fill="#FF0000" d="M131.288,332.602c0,2.65-1.607,4.258-3.97,4.258c-2.398,0-3.802-1.811-3.802-4.113
				c0-2.423,1.547-4.234,3.934-4.234C129.933,328.512,131.288,330.371,131.288,332.602z M125.447,332.71
				c0,1.583,0.744,2.698,1.967,2.698c1.235,0,1.943-1.176,1.943-2.746c0-1.451-0.696-2.699-1.955-2.699
				C126.167,329.963,125.447,331.139,125.447,332.71z"/>
			<path fill="#FF0000" d="M132.552,334.845c0.492,0.252,1.247,0.504,2.027,0.504c0.839,0,1.283-0.349,1.283-0.876
				c0-0.504-0.384-0.791-1.355-1.14c-1.343-0.468-2.219-1.211-2.219-2.387c0-1.379,1.151-2.435,3.058-2.435
				c0.912,0,1.583,0.192,2.063,0.408l-0.408,1.475c-0.324-0.155-0.9-0.383-1.691-0.383s-1.175,0.359-1.175,0.779
				c0,0.516,0.456,0.743,1.5,1.139c1.427,0.528,2.099,1.271,2.099,2.411c0,1.355-1.043,2.507-3.262,2.507
				c-0.923,0-1.835-0.24-2.291-0.492L132.552,334.845z"/>
			<path fill="#FF0000" d="M144.909,336.5c-0.336,0.168-1.092,0.348-2.075,0.348c-2.794,0-4.233-1.739-4.233-4.042
				c0-2.759,1.967-4.294,4.414-4.294c0.947,0,1.667,0.192,1.991,0.36l-0.372,1.451c-0.372-0.156-0.888-0.3-1.535-0.3
				c-1.451,0-2.579,0.875-2.579,2.674c0,1.619,0.959,2.639,2.59,2.639c0.552,0,1.164-0.119,1.523-0.264L144.909,336.5z"/>
			<path fill="#FF0000" d="M153.151,332.602c0,2.65-1.607,4.258-3.97,4.258c-2.399,0-3.802-1.811-3.802-4.113
				c0-2.423,1.547-4.234,3.934-4.234C151.796,328.512,153.151,330.371,153.151,332.602z M147.311,332.71
				c0,1.583,0.744,2.698,1.967,2.698c1.235,0,1.943-1.176,1.943-2.746c0-1.451-0.696-2.699-1.955-2.699
				C148.03,329.963,147.311,331.139,147.311,332.71z"/>
			<path fill="#FF0000" d="M154.355,328.752c0.564-0.096,1.355-0.168,2.471-0.168c1.127,0,1.931,0.216,2.471,0.647
				c0.516,0.408,0.863,1.08,0.863,1.871c0,0.792-0.264,1.463-0.744,1.919c-0.624,0.588-1.547,0.852-2.626,0.852
				c-0.24,0-0.456-0.012-0.624-0.036v2.891h-1.811V328.752z M156.167,332.422c0.156,0.036,0.348,0.048,0.612,0.048
				c0.971,0,1.571-0.491,1.571-1.319c0-0.743-0.516-1.188-1.427-1.188c-0.372,0-0.624,0.036-0.756,0.072V332.422z"/>
			<path fill="#FF0000" d="M166.137,333.31h-2.975v1.919h3.322v1.499h-5.157v-8.084h4.989v1.5h-3.154v1.679h2.975V333.31z"/>
		</g>
	</g>
	<path fill="none" stroke="#231F20" stroke-width="0.01" stroke-miterlimit="10" d="M532.195,380.813
		c0,7.318-5.373,13.254-12,13.254H33.959c-6.627,0-12-5.936-12-13.254V31.656c0-7.319,5.373-13.252,12-13.252h486.235
		c6.627,0,12,5.933,12,13.252V380.813z"/>
	<circle fill="#FFFFFF" cx="311.684" cy="348.729" r="13.517"/>
	<path fill="#FF0000" d="M311.523,333.728c4.195,0,7.768,1.465,10.714,4.394c1.41,1.41,2.482,3.022,3.214,4.835
		s1.099,3.736,1.099,5.771c0,2.054-0.361,3.979-1.084,5.771c-0.724,1.795-1.791,3.381-3.2,4.755
		c-1.465,1.446-3.125,2.554-4.982,3.321s-3.777,1.152-5.759,1.152c-1.982,0-3.88-0.379-5.692-1.139
		c-1.813-0.758-3.438-1.857-4.874-3.294c-1.438-1.438-2.532-3.058-3.281-4.862c-0.751-1.804-1.126-3.705-1.126-5.705
		c0-1.982,0.379-3.889,1.138-5.719s1.863-3.469,3.308-4.915C303.853,335.184,307.362,333.728,311.523,333.728z M311.577,336.434
		c-3.429,0-6.313,1.196-8.651,3.589c-1.18,1.197-2.085,2.541-2.719,4.031c-0.635,1.491-0.952,3.05-0.952,4.674
		c0,1.608,0.317,3.156,0.952,4.647c0.634,1.492,1.539,2.823,2.719,3.991c1.178,1.171,2.508,2.063,3.99,2.68
		c1.483,0.615,3.036,0.924,4.661,0.924c1.606,0,3.164-0.313,4.675-0.938c1.509-0.625,2.87-1.527,4.084-2.705
		c2.34-2.285,3.509-5.151,3.509-8.599c0-1.661-0.304-3.231-0.91-4.714s-1.491-2.804-2.651-3.965
		C317.871,337.64,314.97,336.434,311.577,336.434z M311.389,346.237l-2.01,1.045c-0.214-0.446-0.478-0.76-0.79-0.938
		s-0.603-0.268-0.871-0.268c-1.338,0-2.008,0.883-2.008,2.651c0,0.804,0.169,1.446,0.508,1.929c0.34,0.482,0.84,0.724,1.5,0.724
		c0.876,0,1.492-0.429,1.849-1.286l1.849,0.938c-0.394,0.732-0.938,1.309-1.634,1.728c-0.696,0.421-1.464,0.63-2.304,0.63
		c-1.34,0-2.421-0.41-3.242-1.232c-0.821-0.821-1.231-1.965-1.231-3.428c0-1.43,0.415-2.563,1.245-3.402
		c0.831-0.839,1.88-1.259,3.148-1.259C309.255,344.067,310.585,344.791,311.389,346.237z M320.041,346.237l-1.982,1.045
		c-0.214-0.446-0.479-0.76-0.79-0.938c-0.313-0.178-0.612-0.268-0.896-0.268c-1.34,0-2.01,0.883-2.01,2.651
		c0,0.804,0.169,1.446,0.509,1.929c0.339,0.482,0.839,0.724,1.501,0.724c0.873,0,1.49-0.429,1.847-1.286l1.875,0.938
		c-0.41,0.732-0.964,1.309-1.66,1.728c-0.696,0.421-1.455,0.63-2.276,0.63c-1.357,0-2.442-0.41-3.253-1.232
		c-0.813-0.821-1.22-1.965-1.22-3.428c0-1.43,0.414-2.563,1.245-3.402c0.83-0.839,1.879-1.259,3.146-1.259
		C317.933,344.067,319.255,344.791,320.041,346.237z"/>
	<g>
		<circle fill="#FFFFFF" cx="345.977" cy="348.789" r="13.644"/>
		<g>
			<path fill="#FF0000" d="M346.211,333.728c4.195,0,7.749,1.455,10.66,4.366c2.909,2.894,4.366,6.438,4.366,10.634
				c0,4.197-1.43,7.715-4.286,10.553c-3.018,2.965-6.599,4.447-10.74,4.447c-4.055,0-7.571-1.473-10.554-4.42
				c-2.946-2.945-4.42-6.473-4.42-10.58c0-4.089,1.474-7.633,4.42-10.633C338.568,335.183,342.086,333.728,346.211,333.728z
				 M346.264,336.433c-3.41,0-6.294,1.206-8.651,3.617c-2.447,2.482-3.67,5.375-3.67,8.678c0,3.34,1.214,6.214,3.643,8.625
				c2.428,2.43,5.321,3.643,8.678,3.643c3.339,0,6.25-1.223,8.732-3.67c2.357-2.285,3.536-5.15,3.536-8.598
				c0-3.428-1.196-6.32-3.589-8.678C352.568,337.638,349.674,336.433,346.264,336.433z M339.568,346.61
				c0.285-1.838,1.025-3.263,2.223-4.271c1.196-1.009,2.651-1.514,4.366-1.514c2.356,0,4.232,0.76,5.625,2.277
				s2.09,3.465,2.09,5.839c0,2.304-0.724,4.219-2.17,5.745c-1.447,1.525-3.321,2.29-5.626,2.29c-1.695,0-3.16-0.509-4.392-1.526
				c-1.232-1.019-1.974-2.465-2.224-4.34h3.777c0.09,1.822,1.188,2.732,3.295,2.732c1.053,0,1.901-0.455,2.544-1.365
				c0.644-0.911,0.966-2.126,0.966-3.643c0-1.59-0.295-2.8-0.884-3.631c-0.59-0.83-1.437-1.244-2.546-1.244
				c-2,0-3.125,0.883-3.375,2.65h1.099l-2.972,2.974l-2.975-2.974H339.568L339.568,346.61z"/>
		</g>
	</g>
	<circle fill="#FFFFFF" cx="380.99" cy="348.871" r="13.255"/>
	<path fill="#FF0000" d="M380.899,333.728c4.213,0,7.767,1.446,10.66,4.339c2.909,2.911,4.366,6.465,4.366,10.661
		c0,4.215-1.43,7.724-4.286,10.526c-3.036,2.982-6.616,4.474-10.74,4.474c-4.055,0-7.571-1.475-10.554-4.42
		c-2.946-2.947-4.42-6.473-4.42-10.58c0-4.106,1.474-7.66,4.42-10.66C373.239,335.174,376.755,333.728,380.899,333.728z
		 M380.952,336.433c-3.41,0-6.294,1.197-8.651,3.59c-2.447,2.5-3.67,5.402-3.67,8.705c0,3.322,1.215,6.197,3.643,8.624
		c2.429,2.43,5.32,3.644,8.678,3.644c3.339,0,6.25-1.223,8.732-3.67c2.357-2.268,3.536-5.133,3.536-8.598
		c0-3.411-1.196-6.313-3.589-8.705S384.345,336.433,380.952,336.433z M384.97,345.005v6.133h-1.714v7.285h-4.661v-7.285h-1.714
		v-6.133c0-0.27,0.094-0.496,0.281-0.684s0.415-0.281,0.683-0.281h6.161c0.25,0,0.474,0.094,0.67,0.281
		C384.872,344.509,384.97,344.737,384.97,345.005z M378.835,341.147c0-1.41,0.696-2.116,2.09-2.116s2.089,0.705,2.089,2.116
		c0,1.393-0.696,2.09-2.089,2.09S378.835,342.54,378.835,341.147z"/>
	<g>
		<g>
			<g>
				<path fill="#FF0000" d="M457.547,349.702l-0.608-2.123c-0.067-0.229-0.277-0.389-0.514-0.389c-0.05,0-0.101,0.008-0.149,0.021
					l-0.78,0.225c-0.104,0.021-0.155-0.049-0.155-0.168l0,0c0.013-1.014-0.256-1.928-0.787-2.664
					c-0.675-0.936-1.707-1.49-2.898-1.561c-0.092-0.004-0.181-0.01-0.27-0.01c-1.885,0-3.247,1.469-3.618,2.92
					c-0.285,1.121-0.043,2.766,1.143,3.916c0.462,0.449,1.031,0.789,1.692,1.014l0.13,0.043c0.037,0.018,0.066,0.07,0.034,0.15
					c-1.15,2.07-2.62,2.074-3.804,2.074c-0.687,0-1.328-0.33-1.904-0.977c-0.079-0.107-0.079-0.242-0.012-0.357
					c1.753-2.895,2.643-7.121,2.643-12.566c0-6.234-3.1-6.908-4.433-6.908c-1.336,0-4.447,0.705-4.447,7.223
					c0,1.203,0.1,7.371,2.028,11.887c0.056,0.145,0.06,0.289-0.035,0.377c-1.1,0.896-2.163,1.033-2.708,1.033
					c-1.133,0-1.684-0.605-1.684-1.852v-8.721c0-0.295-0.24-0.535-0.535-0.535h-2.21c-0.294,0-0.534,0.24-0.534,0.535v0.57
					c-0.009,0.158-0.156,0.148-0.246,0.117l-0.065-0.027c-0.971-0.389-1.943-0.473-2.608-0.473c-1.79,0-5.972,0.637-6.174,6.533
					c-0.007,0.037-0.012,0.074-0.012,0.111v0.236c-0.001,0.008-0.004,0.078-0.004,0.088l0.004,0.781c0,1.76-1.191,2.58-3.752,2.58
					c-0.894,0-1.83-0.691-2.63-1.371c-0.062-0.066-0.109-0.148-0.033-0.357c0.013-0.037,0.021-0.072,0.025-0.107
					c0.054-0.16,0.107-0.318,0.161-0.475c0.787-2.266-0.251-4.383-1.259-6.432c-0.702-1.432-1.43-2.91-1.43-4.307
					c0-3.063,2.127-4.152,4.114-4.152c1.979,0,2.774,1.357,3.022,1.941l0.434,1.016c0.085,0.197,0.278,0.326,0.492,0.326
					c0.072,0,0.144-0.016,0.211-0.043l2.031-0.869c0.131-0.057,0.234-0.164,0.285-0.293c0.054-0.131,0.053-0.279-0.005-0.41
					l-0.433-1.016c-0.396-0.922-1.996-3.934-6.038-3.934c-4.352,0-7.394,3.057-7.394,7.434c0,2.158,0.938,4.068,1.768,5.754
					c0.656,1.338,1.277,2.604,1.18,3.545c-0.014,0.037-0.025,0.037-0.033,0.037c-0.015,0-0.033-0.004-0.051-0.012
					c-0.72-0.404-1.404-0.6-2.097-0.6c-2.331,0-4.157,1.729-4.157,3.934c0,2.203,1.856,3.996,4.138,3.996
					c1.408,0,2.522-0.578,3.403-1.762c0.077-0.098,0.143-0.107,0.183-0.107c0.066,0,0.147,0.033,0.236,0.096
					c1.337,0.986,2.569,1.447,3.875,1.447c1.886,0,3.504-0.426,4.696-1.23l0.001,0.004l0.19-0.137
					c0.141-0.102,0.239-0.15,0.311-0.15c0.032,0,0.08,0.01,0.152,0.086l0.026,0.025c1.05,1.146,2.582,1.729,4.561,1.729
					c1.742,0,3.144-0.453,4.17-1.348l0.008-0.006c0.099-0.08,0.187-0.121,0.264-0.121c0.064,0,0.13,0.029,0.201,0.088
					c0.871,0.721,2.023,1.115,3.24,1.115c0.835,0,2.451-0.168,4.121-1.277l0.002,0.01l0.195-0.143
					c0.113-0.084,0.213-0.127,0.297-0.127c0.065,0,0.129,0.027,0.192,0.082c1.147,1.156,2.513,1.742,4.061,1.742
					c2.435,0,5.461-0.6,7.353-5.215l0,0c0.04-0.107,0.142-0.158,0.251-0.184c0.503-0.088,1.023-0.211,1.554-0.361l1.063-0.305
					c0.136-0.039,0.249-0.131,0.318-0.256C457.57,349.985,457.586,349.837,457.547,349.702z M413.493,352.495
					c-0.282,0.447-0.557,0.637-0.916,0.637c-0.537,0-0.858-0.361-0.858-0.715c0-0.326,0.27-0.656,0.877-0.656
					c0.229,0,0.355,0.055,0.862,0.42C413.575,352.269,413.542,352.399,413.493,352.495z M432.402,352.435
					c-0.424,0.488-1.078,0.697-2.19,0.697c-1.896,0-2.865-0.543-2.905-3.51v-0.313c0.044-3.279,1.521-3.553,2.905-3.553
					c0.938,0,1.579,0.191,2.009,0.592c0.048,0.051,0.064,0.111,0.051,0.189c-0.272,1.555-0.471,3.758,0.088,5.576h-0.001
					l0.066,0.207C432.434,352.356,432.434,352.386,432.402,352.435z M443.256,347.933c-0.05,0.094-0.133,0.078-0.164-0.01
					c-0.927-3.486-1.004-7.242-1.004-8.357c0-2.719,0.683-3.943,1.168-3.943c0.573,0,1.153,1.246,1.153,3.629
					C444.41,342.79,444.019,345.704,443.256,347.933z M452.005,347.724c-0.018,0.055-0.056,0.102-0.17,0.102
					c-0.025,0-0.048-0.002-0.076-0.008c-0.303-0.088-0.474-0.213-0.566-0.303c-0.326-0.314-0.25-0.746-0.247-0.75
					c0.028-0.115,0.181-0.445,0.48-0.447l0.029,0.002c0.206,0.012,0.346,0.076,0.438,0.203
					C452.068,346.767,452.11,347.214,452.005,347.724z"/>
			</g>
			<g>
				<g>
					<path fill="#FF0000" d="M412.966,363.421c-0.173,0.18-0.427,0.26-0.809,0.26h-1.023v-4.115h1.028
						c0.382,0,0.631,0.082,0.804,0.256c0.185,0.191,0.254,0.461,0.254,0.867c0,0.277-0.027,0.508-0.214,0.693
						c-0.063,0.064-0.133,0.109-0.213,0.145c0.086,0.033,0.161,0.086,0.22,0.15c0.203,0.219,0.221,0.531,0.221,0.785
						C413.234,362.929,413.164,363.22,412.966,363.421z M412.088,360.149h-0.307v1.117h0.307c0.342,0,0.485-0.168,0.485-0.563
						C412.574,360.29,412.435,360.149,412.088,360.149z M412.094,361.815h-0.313v1.283h0.313c0.353,0,0.49-0.162,0.49-0.645
						C412.584,361.999,412.442,361.815,412.094,361.815z"/>
					<path fill="#FF0000" d="M416.117,362.069v1.611h-0.646v-1.611l-0.798-2.504h0.717l0.405,1.631l0.408-1.631h0.711
						L416.117,362.069z"/>
					<path fill="#FF0000" d="M422.458,363.341c-0.168,0.191-0.405,0.34-0.797,0.34h-1.048v-4.115h1.048
						c0.392,0,0.629,0.152,0.797,0.344c0.307,0.34,0.301,0.924,0.301,1.715S422.764,363.001,422.458,363.341z M421.972,360.317
						c-0.063-0.098-0.173-0.168-0.329-0.168h-0.382v2.949h0.382c0.156,0,0.266-0.07,0.329-0.17c0.121-0.189,0.139-0.594,0.139-1.311
						S422.093,360.509,421.972,360.317z"/>
					<path fill="#FF0000" d="M424.498,363.681v-4.115h0.648v4.115H424.498z"/>
					<path fill="#FF0000" d="M429.11,363.681v-2.566l-0.561,1.688h-0.359l-0.547-1.658v2.537h-0.647v-4.115h0.583l0.797,2.162
						l0.792-2.162h0.588v4.115H429.11z"/>
					<path fill="#FF0000" d="M431.607,363.681v-4.115h1.729v0.584h-1.081v1.17h0.93v0.582h-0.93v1.197h1.081v0.582H431.607z"/>
					<path fill="#FF0000" d="M436.671,363.681l-0.972-2.443v2.443h-0.648v-4.115h0.578l0.966,2.445v-2.445h0.647v4.115H436.671z"/>
					<path fill="#FF0000" d="M440.816,363.45c-0.17,0.162-0.44,0.273-0.805,0.273c-0.359,0-0.624-0.102-0.798-0.273
						c-0.196-0.197-0.266-0.449-0.266-0.885h0.647c0,0.219,0.024,0.359,0.115,0.463c0.059,0.064,0.156,0.109,0.301,0.109
						c0.15,0,0.248-0.039,0.313-0.115c0.086-0.098,0.109-0.238,0.109-0.457c0-0.438-0.067-0.543-0.388-0.676l-0.491-0.203
						c-0.415-0.174-0.572-0.398-0.572-1.033c0-0.371,0.109-0.672,0.336-0.873c0.178-0.156,0.41-0.25,0.705-0.25
						c0.328,0,0.571,0.088,0.739,0.25c0.213,0.207,0.29,0.502,0.29,0.896h-0.648c0-0.184-0.012-0.33-0.098-0.439
						c-0.059-0.076-0.152-0.121-0.288-0.121c-0.135,0-0.215,0.045-0.279,0.115c-0.074,0.086-0.109,0.225-0.109,0.404
						c0,0.334,0.053,0.439,0.342,0.555l0.485,0.197c0.489,0.195,0.625,0.463,0.625,1.154
						C441.082,362.964,441.023,363.247,440.816,363.45z"/>
					<path fill="#FF0000" d="M442.802,363.681v-4.115h0.647v4.115H442.802z"/>
					<path fill="#FF0000" d="M447.084,363.38c-0.173,0.197-0.403,0.348-0.795,0.348c-0.395,0-0.626-0.15-0.799-0.348
						c-0.306-0.346-0.3-0.947-0.3-1.756s-0.006-1.41,0.3-1.758c0.173-0.195,0.404-0.346,0.799-0.346c0.392,0,0.622,0.15,0.795,0.346
						c0.308,0.348,0.302,0.949,0.302,1.758S447.392,363.034,447.084,363.38z M446.599,360.259c-0.056-0.09-0.153-0.154-0.31-0.154
						c-0.157,0-0.25,0.064-0.308,0.154c-0.121,0.197-0.144,0.615-0.144,1.365s0.022,1.166,0.144,1.365
						c0.058,0.092,0.15,0.156,0.308,0.156c0.156,0,0.254-0.064,0.31-0.156c0.122-0.199,0.14-0.615,0.14-1.365
						S446.721,360.456,446.599,360.259z"/>
					<path fill="#FF0000" d="M450.747,363.681l-0.974-2.443v2.443h-0.648v-4.115h0.579l0.965,2.445v-2.445h0.647v4.115H450.747z"/>
				</g>
				<polygon fill="#FF0000" points="453.904,360.011 453.904,359.028 454.871,359.017 454.869,358.368 453.904,358.368 
					453.904,357.403 453.232,357.403 453.236,358.368 452.265,358.368 452.265,359.04 453.242,359.032 453.252,360.011 				"/>
			</g>
		</g>
	</g>
	<circle fill="none" stroke="#000000" stroke-width="0.01" stroke-miterlimit="10" cx="185.002" cy="188.758" r="54.567"/>
	<circle fill="none" stroke="#000000" stroke-width="0.01" stroke-miterlimit="10" cx="369.502" cy="188.504" r="54.567"/>
</g>
</svg>
